<svg width="80" height="80" viewBox="0 0 80 80" fill="none" xmlns="http://www.w3.org/2000/svg">
<path d="M33.3333 45.3334H19.28C22.2355 42.049 21.969 36.9909 18.6847 34.0354C15.4003 31.0799 10.3422 31.3464 7.38667 34.6307C4.64883 37.673 4.64883 42.291 7.38667 45.3334H6.66667C2.98483 45.3334 0 48.3182 0 52V61.3334C0 62.0697 0.597 62.6667 1.33333 62.6667H5.33333V78.6667C5.33333 79.403 5.93034 80 6.66667 80H20C20.7363 80 21.3333 79.403 21.3333 78.6667V53.3334H33.3333C34.0697 53.3334 34.6667 52.7364 34.6667 52V46.6667C34.6667 45.9304 34.0697 45.3334 33.3333 45.3334ZM13.3333 34.6667C16.2788 34.6667 18.6667 37.0545 18.6667 40C18.6667 42.9455 16.2788 45.3334 13.3333 45.3334C10.3878 45.3334 8 42.9455 8 40C8 37.0545 10.3878 34.6667 13.3333 34.6667ZM32 50.6667H20C19.2637 50.6667 18.6667 51.2637 18.6667 52V77.3334H14.6667V62.6667H12V77.3334H8V52H5.33333V60H2.66667V52C2.66667 49.7909 4.4575 48 6.66667 48H32V50.6667Z" fill="#686868"/>
<path d="M73.333 45.3334H72.613C75.5685 42.049 75.302 36.9909 72.0177 34.0354C68.7333 31.0799 63.6752 31.3464 60.7197 34.6307C57.9818 37.673 57.9818 42.291 60.7197 45.3334H59.9997C56.3178 45.3334 53.333 48.3182 53.333 52V61.3334C53.333 62.0697 53.93 62.6667 54.6663 62.6667H58.6663V78.6667C58.6663 79.403 59.2633 80 59.9997 80H73.333C74.0693 80 74.6663 79.403 74.6663 78.6667V62.6667H78.6663C79.4027 62.6667 79.9997 62.0697 79.9997 61.3334V52C79.9997 48.3182 77.0148 45.3334 73.333 45.3334ZM66.6663 34.6667C69.6118 34.6667 71.9997 37.0545 71.9997 40C71.9997 42.9455 69.6118 45.3334 66.6663 45.3334C63.7208 45.3334 61.333 42.9455 61.333 40C61.333 37.0545 63.7208 34.6667 66.6663 34.6667ZM77.333 60H74.6663V52H71.9997V77.3334H67.9997V62.6667H65.333V77.3334H61.333V52H58.6663V60H55.9997V52C55.9997 49.7909 57.7905 48 59.9997 48H73.333C75.5422 48 77.333 49.7909 77.333 52V60Z" fill="#686868"/>
<path d="M72.0003 0H8.00033C7.26399 0 6.66699 0.597 6.66699 1.33333V25.3333C6.66699 26.0697 7.26399 26.6667 8.00033 26.6667H22.667V33.3333C22.6697 33.8717 22.9958 34.3555 23.4937 34.56C23.6518 34.6347 23.8255 34.6712 24.0003 34.6667C24.3547 34.6687 24.6953 34.5295 24.947 34.28L32.547 26.6667H47.4537L55.0537 34.28C55.3053 34.5295 55.646 34.6687 56.0003 34.6667C56.1752 34.6712 56.3488 34.6347 56.507 34.56C57.0048 34.3555 57.331 33.8717 57.3337 33.3333V26.6667H72.0003C72.7367 26.6667 73.3337 26.0697 73.3337 25.3333V1.33333C73.3337 0.597 72.7367 0 72.0003 0ZM41.0003 16C40.5133 15.4477 39.6707 15.3948 39.1183 15.882C38.8318 16.1347 38.6675 16.498 38.667 16.88V24H32.0003C31.646 23.998 31.3053 24.1372 31.0537 24.3867L25.3337 30.12V25.3333C25.3337 24.597 24.7367 24 24.0003 24H9.33366V2.66667H38.667V9.84C38.668 10.5763 39.2658 11.1725 40.0022 11.1715C40.3842 11.171 40.7477 11.0065 41.0003 10.7202C41.7537 9.84717 42.8472 9.34167 44.0003 9.3335C46.2095 9.3335 48.0003 11.1243 48.0003 13.3335C48.0003 15.5427 46.2095 17.3335 44.0003 17.3335C42.8557 17.3387 41.7635 16.8532 41.0003 16ZM70.667 24H56.0003C55.264 24 54.667 24.597 54.667 25.3333V30.12L48.947 24.3867C48.6953 24.1372 48.3547 23.998 48.0003 24H41.3337V19.4267C42.1727 19.8022 43.0812 19.9975 44.0003 20C47.6822 20 50.667 17.0152 50.667 13.3333C50.667 9.6515 47.6822 6.66667 44.0003 6.66667C43.0812 6.66917 42.1727 6.8645 41.3337 7.24V2.66667H70.667V24Z" fill="#686868"/>
<path d="M34.6668 6.66675H13.3335V9.33342H34.6668V6.66675Z" fill="#686868"/>
<path d="M34.6668 12H13.3335V14.6667H34.6668V12Z" fill="#686868"/>
<path d="M34.6668 17.3333H13.3335V19.9999H34.6668V17.3333Z" fill="#686868"/>
<path d="M66.6665 6.66675H54.6665V9.33342H66.6665V6.66675Z" fill="#686868"/>
<path d="M66.6665 12H54.6665V14.6667H66.6665V12Z" fill="#686868"/>
<path d="M66.6665 17.3333H54.6665V19.9999H66.6665V17.3333Z" fill="#686868"/>
</svg>
