<svg width="80" height="80" viewBox="0 0 80 80" fill="none" xmlns="http://www.w3.org/2000/svg">
<path d="M20.0004 2.66714C19.335 2.66714 18.6657 2.75647 18.0004 2.9338C16.0244 1.06048 13.3977 0.000488281 10.6671 0.000488281C4.78579 0.000488281 0.000488281 4.78579 0.000488281 10.6671C0.000488281 11.4044 0.596485 12.0004 1.33381 12.0004H26.667C27.4043 12.0004 28.0003 11.4044 28.0003 10.6671C28.0003 6.25512 24.4123 2.66714 20.0004 2.66714ZM2.77781 9.3351V9.33377C3.41514 5.55512 6.70978 2.66714 10.6671 2.66714C12.9324 2.66714 15.1057 3.64313 16.6284 5.34579C16.9964 5.75912 17.5831 5.90046 18.0991 5.70312C21.2804 4.48313 24.423 6.45779 25.1657 9.3351H2.77781Z" fill="#686868"/>
<path d="M22.6667 14.667H20V17.3336H22.6667V14.667Z" fill="#686868"/>
<path d="M28.0001 14.667H25.3335V17.3336H28.0001V14.667Z" fill="#686868"/>
<path d="M33.3336 14.667H30.667V17.3336H33.3336V14.667Z" fill="#686868"/>
<path d="M62.6666 39.5922C62.6666 37.6269 61.26 35.9683 59.324 35.6469L54.9107 34.9109L55.7587 30.667H66.6666V38.6669H69.3333V29.3336V24.0003V12.8244L79.2626 7.85908C79.7145 7.63375 79.9999 7.17242 79.9999 6.66709C79.9999 6.16176 79.7145 5.70043 79.2626 5.47376L68.5959 0.140457C68.1813 -0.0648752 67.6906 -0.0448753 67.2986 0.199123C66.9066 0.443122 66.6666 0.871119 66.6666 1.33378V12.0004V22.667H56.6133C57.8853 21.2497 58.6667 19.3843 58.6667 17.3337C58.6667 12.9217 55.0787 9.33374 50.6667 9.33374C46.2547 9.33374 42.6668 12.9217 42.6668 17.3337C42.6668 19.7283 43.7294 21.875 45.4014 23.3417L33.9148 33.5523L26.4575 37.2802L22.6335 36.6429C24.2855 35.1763 25.3335 33.0443 25.3335 30.667C25.3335 26.255 21.7455 22.667 17.3336 22.667C12.9216 22.667 9.33361 26.255 9.33361 30.667C9.33361 33.1003 10.4296 35.2803 12.1496 36.7482C12.1309 36.7856 12.1043 36.8149 12.0896 36.8536L7.95629 47.6002C7.20029 49.5695 7.40429 51.7255 8.51762 53.5162C8.72962 53.8575 8.97628 54.1655 9.23761 54.4575L5.6083 60.5068L0.390998 65.7241C-0.130333 66.2454 -0.130333 67.0881 0.390998 67.6094L4.39097 71.6094C4.65097 71.8694 4.9923 72 5.33364 72C5.67497 72 6.0163 71.8694 6.2763 71.6094L12.9429 64.9428C13.0056 64.8801 13.0616 64.8121 13.1096 64.7401L18.2309 57.0575L20.0002 57.2175V62.6668H18.6669C17.9296 62.6668 17.3336 63.2628 17.3336 64.0001V73.6054L1.03366 77.3667C0.428331 77.5067 0.000333341 78.0453 0.000333341 78.6667V80H2.66699V79.728L18.9669 75.9667C19.5722 75.8267 20.0002 75.288 20.0002 74.6667V65.3334H21.3335H28.0002H40.0001C40.3774 65.3334 40.7388 65.1734 40.9908 64.8921L52.5934 52.0002H54.6667H61.3333H79.9999V49.3335H62.6666V39.5922ZM69.3333 3.4911L75.6852 6.66709L69.3333 9.84307V3.4911ZM45.3334 17.3337C45.3334 14.3924 47.7254 12.0004 50.6667 12.0004C53.608 12.0004 56 14.3924 56 17.3337C56 20.275 53.608 22.667 50.6667 22.667C47.7254 22.667 45.3334 20.275 45.3334 17.3337ZM43.4534 28.6403L41.4254 33.9123L37.6588 36.7522L36.4188 34.8923L43.4534 28.6403ZM12.0003 30.667C12.0003 27.7256 14.3923 25.3336 17.3336 25.3336C20.2749 25.3336 22.6669 27.7256 22.6669 30.667C22.6669 33.6083 20.2749 36.0003 17.3336 36.0003C14.3923 36.0003 12.0003 33.6083 12.0003 30.667ZM10.9643 63.1508L5.33364 68.7814L3.21898 66.6667L7.60962 62.2761C7.68696 62.1988 7.75362 62.1134 7.80962 62.0201L11.3896 56.0535C12.0683 56.3641 12.8029 56.5641 13.5736 56.6348L15.2082 56.7828L10.9643 63.1508ZM26.6668 62.6668H22.6669V56.0001C22.6669 55.3095 22.1402 54.7348 21.4549 54.6721L13.8163 53.9775C12.5563 53.8628 11.4509 53.1815 10.7816 52.1068C10.1136 51.0322 9.99094 49.7402 10.4456 48.5589L14.2496 38.6669H18.5562L26.4482 39.9816C26.7268 40.0269 27.0122 39.9842 27.2628 39.8589L34.2095 36.3856L35.4308 38.2176L27.6455 42.6669H21.3335C20.7215 42.6669 20.1896 43.0829 20.0402 43.6775L18.7069 49.0108C18.6162 49.3722 18.6802 49.7535 18.8856 50.0642C19.0882 50.3748 19.4136 50.5882 19.7816 50.6482L25.5535 51.6108C26.1975 51.7175 26.6668 52.2708 26.6668 52.9255V62.6668ZM53.3334 49.3335H52C51.6227 49.3335 51.2614 49.4935 51.0094 49.7748L39.4068 62.6668H29.3335V52.9255C29.3335 50.9602 27.9268 49.3015 25.9909 48.9802L21.6429 48.2549L22.3749 45.3335H28.0002C28.2322 45.3335 28.4602 45.2722 28.6615 45.1575L37.9948 39.8242C38.0148 39.8122 38.0268 39.7909 38.0468 39.7789C38.0748 39.7602 38.1081 39.7522 38.1361 39.7322L40.9214 37.6322C41.0534 38.5216 41.3574 39.3882 41.8508 40.1829C42.0628 40.5242 42.3094 40.8322 42.5708 41.1242L38.9414 47.1735L33.7241 52.3908C33.2028 52.9122 33.2028 53.7548 33.7241 54.2761L37.7241 58.2761C37.9841 58.5361 38.3254 58.6668 38.6668 58.6668C39.0081 58.6668 39.3494 58.5361 39.6094 58.2761L46.2761 51.6095C46.3387 51.5468 46.3947 51.4788 46.4427 51.4068L51.564 43.7242L53.3334 43.8842V49.3335ZM44.7227 42.7202C45.4014 43.0309 46.1361 43.2309 46.9067 43.3015L48.5414 43.4495L44.2961 49.8175L38.6668 55.4481L36.5521 53.3335L40.9428 48.9428C41.0201 48.8655 41.0868 48.7802 41.1428 48.6868L44.7227 42.7202ZM60 49.3335H56V42.6669C56 41.9762 55.4734 41.4016 54.788 41.3389L47.1494 40.6442C45.8894 40.5296 44.7841 39.8482 44.1147 38.7736C43.4468 37.6989 43.3241 36.4069 43.7788 35.2256L47.5827 25.3336H66.6666V28.0003H54.6667C54.0307 28.0003 53.484 28.4496 53.36 29.0723L52.0267 35.7389C51.956 36.0936 52.032 36.4602 52.236 36.7589C52.4414 37.0562 52.7587 37.2562 53.1147 37.3162L58.8867 38.2789C59.5307 38.3842 60 38.9376 60 39.5922V49.3335Z" fill="#686868"/>
</svg>
