<svg width="82" height="80" viewBox="0 0 82 80" fill="none" xmlns="http://www.w3.org/2000/svg">
<path d="M63.7289 0C53.9936 0 46.1018 7.89187 46.1018 17.6271V18.739L40.7594 33.4373C40.6106 33.8507 40.6711 34.3105 40.9221 34.6712C41.175 35.0358 41.5903 35.2536 42.034 35.2542H48.8136V43.3898C48.8136 44.1386 49.4208 44.7458 50.1696 44.7458H63.7289V50.1695C63.7289 50.9183 64.336 51.5254 65.0848 51.5254H80.0001C80.7489 51.5254 81.356 50.9183 81.356 50.1695V17.6271C81.356 7.89187 73.4642 0 63.7289 0ZM78.6442 48.8136H66.4408V43.3898C66.4408 42.641 65.8336 42.0339 65.0848 42.0339H51.5255V33.8983C51.5255 33.1495 50.9184 32.5424 50.1696 32.5424H43.973L48.7323 19.4441C48.7859 19.2963 48.8135 19.1403 48.8136 18.9831V17.6271C48.8136 9.38966 55.4914 2.71186 63.7289 2.71186C71.9664 2.71186 78.6442 9.38966 78.6442 17.6271V48.8136Z" fill="#686868"/>
<path d="M61.0845 17.478C59.0839 19.4745 55.8446 19.4745 53.8439 17.478L51.9185 19.4035C54.983 22.4619 59.9454 22.4619 63.01 19.4035L61.0845 17.478Z" fill="#686868"/>
<path d="M40.5966 61.9119L35.2542 47.2136V46.1017C35.2542 36.3665 27.3624 28.4746 17.6271 28.4746C7.89187 28.4746 0 36.3665 0 46.1017V78.6441C0 79.3929 0.607119 80 1.35593 80H16.2712C17.02 80 17.6271 79.3929 17.6271 78.6441V73.2204H31.1864C31.9353 73.2204 32.5424 72.6133 32.5424 71.8644V63.7288H39.322C39.7658 63.7282 40.181 63.5104 40.4339 63.1458C40.6849 62.7851 40.7454 62.3253 40.5966 61.9119ZM31.1864 61.017C30.4376 61.017 29.8305 61.6241 29.8305 62.3729V70.5085H16.2712C15.5224 70.5085 14.9153 71.1156 14.9153 71.8644V77.2882H2.71186V46.1017C2.71186 37.8643 9.38966 31.1865 17.6271 31.1865C25.8646 31.1865 32.5424 37.8643 32.5424 46.1017V47.4577C32.5425 47.6149 32.5702 47.7709 32.6237 47.9187L37.3831 61.017H31.1864Z" fill="#686868"/>
<path d="M27.5118 45.9526C25.5111 47.9491 22.2718 47.9491 20.2711 45.9526L18.3457 47.8781C21.4103 50.9365 26.3726 50.9365 29.4372 47.8781L27.5118 45.9526Z" fill="#686868"/>
<path d="M21.695 10.8477C17.9507 10.8477 14.9153 13.8831 14.9153 17.6273V21.1392L13.1661 19.3765L11.2407 21.3019L15.3085 25.3697C15.8358 25.9014 16.6945 25.9049 17.2261 25.3775C17.2289 25.3749 17.2314 25.3722 17.2339 25.3697L21.3017 21.3019L19.3763 19.3765L17.6272 21.1392V17.6273C17.6272 15.3807 19.4483 13.5595 21.695 13.5595H37.9661V10.8477H21.695Z" fill="#686868"/>
<path d="M43.3896 10.8477H40.6777V13.5595H43.3896V10.8477Z" fill="#686868"/>
<path d="M74.1828 54.6306C73.6555 54.0989 72.7969 54.0953 72.2652 54.6228C72.2625 54.6253 72.2599 54.628 72.2574 54.6306L68.1896 58.6984L70.115 60.6238L71.8642 58.8611V65.0848C71.8642 67.3314 70.043 69.1526 67.7964 69.1526H40.6777V71.8645H67.7964C71.5406 71.8645 74.576 68.8291 74.576 65.0848V58.8611L76.3252 60.6238L78.2506 58.6984L74.1828 54.6306Z" fill="#686868"/>
<path d="M37.9663 69.1526H35.2544V71.8644H37.9663V69.1526Z" fill="#686868"/>
</svg>
