<svg width="319" height="255" viewBox="0 0 319 255" fill="none" xmlns="http://www.w3.org/2000/svg">
<path opacity="0.3" fill-rule="evenodd" clip-rule="evenodd" d="M162.438 4.62983C189.213 4.94754 216.33 -4.42713 240.782 6.48548C268.478 18.8451 298.303 38.4502 304.666 68.1023C310.983 97.5432 281.868 121.477 271.525 149.756C261.741 176.506 266.391 209.366 245.799 229.045C224.304 249.589 192.15 255.148 162.438 254.012C133.486 252.905 108.346 237.882 83.5839 222.841C56.468 206.371 25.7095 191.885 12.5945 162.998C-1.18053 132.657 -1.35028 95.9491 12.1414 65.4809C25.0367 36.3595 53.2085 16.5627 82.7304 4.61006C107.975 -5.61091 135.204 4.30667 162.438 4.62983Z" fill="#2679D5"/>
<path d="M209.364 203.565C208.409 203.565 207.634 202.791 207.634 201.835L207.195 90.2152C207.193 89.8413 206.89 89.5391 206.516 89.5391H201.243C201.063 89.5391 200.89 89.6093 200.763 89.7361C200.635 89.863 200.564 90.0354 200.564 90.2152L200.124 201.838C200.122 202.793 199.349 203.566 198.394 203.568C195.873 203.571 193.83 205.614 193.827 208.135V208.9C193.829 210.224 194.901 211.297 196.225 211.298H211.534C212.857 211.297 213.93 210.224 213.931 208.9V208.135C213.93 205.613 211.886 203.568 209.364 203.565Z" fill="#A3B6B7"/>
<path d="M227.709 59.4512C223.923 55.142 219.15 50.6265 214.534 46.2603C212.97 44.7805 211.49 43.3848 210.092 42.0299C209.891 41.8371 209.69 41.6389 209.486 41.4406C207.501 39.4856 205.25 37.2754 202.321 37.6392C200.29 37.8972 198.69 39.3091 197.227 40.7292C190.336 47.4266 183.88 54.5579 177.899 62.0796C175.317 65.3243 172.838 69.18 174.022 73.1498C174.592 75.0505 179.181 78.9578 183.444 82.4578C184.033 82.9411 184.497 83.324 184.774 83.5629L198.704 95.5998C200.298 96.9765 201.894 98.2146 203.887 98.2527H203.977C206.309 98.2527 208.156 96.5882 209.804 94.7852C210.532 93.9842 211.664 92.8139 213.1 91.3287C219.557 84.6491 230.367 73.4675 231.532 68.4008C232.303 65.0447 229.962 62.0198 227.709 59.4512Z" fill="#F6F6F6"/>
<path d="M219.63 62.0981C217.086 59.2009 213.882 56.1706 210.784 53.2408C209.736 52.2498 208.747 51.3157 207.811 50.4088L207.406 50.0069C206.048 48.6493 204.49 47.1369 202.418 47.4003C200.987 47.5822 199.882 48.5543 198.875 49.5318C194.25 54.0279 189.916 58.8148 185.901 63.8631C184.133 66.0869 182.439 68.7289 183.262 71.4876C183.623 72.6986 185.977 74.8138 189.651 77.8359C190.039 78.1563 190.351 78.4116 190.539 78.5745L199.877 86.6633C200.963 87.6137 202.081 88.469 203.493 88.4962H203.559C205.207 88.4962 206.488 87.3449 207.631 86.0986C208.117 85.5555 208.878 84.7789 209.836 83.7878C215.457 77.9717 221.512 71.5012 222.251 68.3107C222.799 65.943 221.17 63.8549 219.63 62.0981Z" fill="#FFC037"/>
<path d="M222.911 211.567H184.848C184.473 211.567 184.169 211.263 184.169 210.888C184.169 210.513 184.473 210.209 184.848 210.209H222.911C223.286 210.209 223.59 210.513 223.59 210.888C223.59 211.263 223.286 211.567 222.911 211.567Z" fill="#1B1812"/>
<path d="M119.828 202.208C118.858 202.208 118.071 201.421 118.071 200.45L117.624 87.0244C117.622 86.6446 117.314 86.3374 116.934 86.3374H111.575C111.196 86.3374 110.887 86.6446 110.886 87.0244L110.439 200.453C110.437 201.423 109.651 202.209 108.681 202.211C106.119 202.214 104.043 204.29 104.04 206.852V207.63C104.042 208.975 105.131 210.065 106.476 210.066H122.033C123.378 210.065 124.468 208.975 124.469 207.63V206.852C124.468 204.289 122.391 202.211 119.828 202.208Z" fill="#A3B6B7"/>
<path d="M128.061 40.5616C122.223 36.9746 115.568 35.6502 109.326 36.8284C102.265 38.1611 96.1731 42.5979 91.7087 49.6587C85.9143 58.8442 86.2234 70.3363 92.5364 79.6514C97.0478 86.2956 105.041 90.1944 114.058 90.1944C114.365 90.1944 114.676 90.1944 114.985 90.1806C124.527 89.9047 132.846 85.3299 137.244 77.9545C146.349 62.6988 139.515 47.5948 128.061 40.5616Z" fill="#46A4F7"/>
<path d="M121.377 52.4596C121.67 51.9262 121.476 51.2558 120.943 50.9613C116.171 48.3179 110.326 48.54 105.768 51.538L106.742 48.9471C106.957 48.3764 106.668 47.7396 106.098 47.5247C105.527 47.3099 104.89 47.5983 104.675 48.169L103.18 52.145C102.919 52.7269 102.823 53.3694 102.904 54.002C102.981 54.4242 103.163 55.412 107.65 57.1282C107.775 57.1757 107.908 57.1999 108.041 57.1999C108.572 57.198 109.026 56.8188 109.123 56.297C109.219 55.7753 108.931 55.2587 108.436 55.067C107.636 54.7601 106.853 54.4129 106.088 54.0268C110.038 50.9044 115.477 50.4573 119.884 52.8928C120.416 53.1826 121.082 52.9893 121.377 52.4596Z" fill="#F6F6F6"/>
<path d="M109.769 69.1835C109.663 68.7974 109.356 68.4992 108.967 68.4041C108.578 68.3091 108.168 68.4322 107.895 68.7258C107.623 69.0194 107.531 69.4374 107.655 69.8181L108.624 73.0491C104.635 71.4203 102.189 67.3655 102.609 63.0773C102.647 62.683 102.471 62.2984 102.149 62.0684C101.826 61.8384 101.405 61.7979 101.045 61.9622C100.685 62.1264 100.439 62.4706 100.401 62.8649C99.899 68.0269 102.785 72.9231 107.545 74.9834C106.262 75.3834 104.957 75.7256 103.646 75.9987C103.09 76.1117 102.71 76.628 102.768 77.1927C102.825 77.7573 103.302 78.1861 103.87 78.1841C103.945 78.1834 104.021 78.176 104.096 78.162C106.383 77.683 108.629 77.0234 110.812 76.1891C111.352 75.9824 111.641 75.3937 111.474 74.8399L109.769 69.1835Z" fill="#F6F6F6"/>
<path d="M130.393 57.3132L125.506 56.5103C125.098 56.4432 124.688 56.6093 124.441 56.9408C123.343 58.4234 122.103 59.7965 120.741 61.0409C120.45 61.3071 120.322 61.7085 120.407 62.0938C120.492 62.4792 120.776 62.79 121.152 62.9092C121.528 63.0283 121.94 62.9378 122.231 62.6716C123.195 61.7901 124.102 60.8483 124.946 59.8517C126.046 62.3416 126.179 65.1517 125.321 67.7348C124.264 70.7527 121.919 73.1439 118.923 74.2604C118.418 74.4434 118.119 74.9628 118.212 75.4911C118.306 76.0194 118.767 76.4036 119.303 76.4015C119.433 76.4015 119.562 76.3783 119.684 76.3325C123.033 75.1021 125.721 72.5359 127.105 69.2472C128.488 65.9585 128.444 62.2428 126.982 58.9881L130.034 59.4903C130.429 59.5676 130.834 59.424 131.092 59.1156C131.351 58.8071 131.42 58.3827 131.275 58.0077C131.129 57.6327 130.791 57.3667 130.393 57.3132Z" fill="#F6F6F6"/>
<path d="M133.595 210.34H94.9164C94.5354 210.34 94.2266 210.031 94.2266 209.65C94.2266 209.269 94.5354 208.96 94.9164 208.96H133.595C133.976 208.96 134.285 209.269 134.285 209.65C134.285 210.031 133.976 210.34 133.595 210.34Z" fill="#1B1812"/>
<path d="M296.898 203.515C295.913 203.515 295.114 202.717 295.114 201.732L294.661 86.6269C294.659 86.2414 294.346 85.9297 293.961 85.9297H288.523C288.338 85.9297 288.159 86.0021 288.028 86.1329C287.897 86.2637 287.823 86.4415 287.823 86.6269L287.369 201.734C287.368 202.719 286.57 203.516 285.586 203.518C282.986 203.521 280.879 205.628 280.876 208.228V209.017C280.878 210.382 281.984 211.488 283.348 211.49H299.135C300.5 211.488 301.606 210.382 301.608 209.017V208.228C301.606 205.627 299.499 203.518 296.898 203.515Z" fill="#A3B6B7"/>
<path d="M305.466 87.1091L280.145 88.2067C274.926 84.8831 270.109 80.4898 266.038 75.5757C265.158 68.2203 265.199 60.7839 266.159 53.4384C266.159 53.4384 272.879 43.7474 277.079 39.7966C285.811 39.1323 294.573 38.9407 303.327 39.2226C307.748 43.0474 312.08 46.9087 315.879 51.484C316.907 59.2101 317.188 67.0172 316.719 74.7973C312.97 78.6025 308.887 82.9482 305.466 87.1091Z" fill="#FA4A1B"/>
<path d="M280.146 89.4664C279.906 89.4653 279.671 89.3964 279.468 89.2676C274.319 85.9888 269.338 81.5339 265.068 76.3874C264.913 76.2014 264.816 75.9748 264.788 75.735C263.895 68.2744 263.936 60.7316 264.911 53.2813C264.935 53.0801 265.008 52.8879 265.124 52.7213C265.404 52.3237 271.953 42.8791 276.206 38.8806C276.418 38.6834 276.691 38.5648 276.979 38.5446C285.756 37.8731 294.563 37.6796 303.361 37.965C303.648 37.976 303.923 38.0846 304.14 38.273C308.62 42.1399 312.949 45.9984 316.838 50.6801C316.989 50.8614 317.086 51.0817 317.118 51.3157C318.15 59.125 318.431 67.0152 317.958 74.8781C317.94 75.1814 317.812 75.4679 317.599 75.6846C313.08 80.2794 309.322 84.3927 306.427 87.9124C306.2 88.1882 305.866 88.3541 305.509 88.3688L280.191 89.4664H280.146ZM267.246 75.0685C271.054 79.6545 275.517 83.6548 280.49 86.9408L304.851 85.8852C307.668 82.4943 311.243 78.5882 315.491 74.2621C315.902 66.8393 315.631 59.3944 314.679 52.0213C311.064 47.726 307.015 44.0971 302.838 40.4767C294.433 40.2209 286.022 40.4079 277.637 41.0367C273.941 44.6543 268.436 52.4273 267.392 53.9169C266.492 60.9321 266.443 68.0304 267.246 75.0573V75.0685Z" fill="#F6F6F6"/>
<path d="M279.299 63.6443C278.787 62.7875 278.303 61.9643 278.151 61.0991C277.941 59.5883 278.715 58.1111 280.078 57.4254C280.318 57.329 280.486 57.1079 280.513 56.8505C280.541 56.5931 280.424 56.3414 280.21 56.1962C279.996 56.051 279.719 56.0359 279.49 56.157C277.551 57.1055 276.45 59.2021 276.771 61.3371C276.967 62.4739 277.541 63.4343 278.095 64.3639L278.283 64.6775C278.818 65.5792 279.305 66.548 279.263 67.5C279.229 68.2812 278.636 69.1604 277.899 69.1632C277.513 69.1632 277.199 69.4766 277.199 69.8632C277.199 70.2498 277.513 70.5633 277.899 70.5633C279.467 70.5633 280.59 69.0064 280.658 67.5616C280.716 66.2456 280.128 65.0415 279.484 63.9635L279.299 63.6443Z" fill="#F6F6F6"/>
<path d="M290.411 56.4169C288.081 56.124 285.73 56.0378 283.385 56.1593C282.999 56.1794 282.702 56.5091 282.722 56.8957C282.742 57.2823 283.071 57.5794 283.458 57.5593C284.645 57.4977 285.836 57.4921 287.031 57.5425C286.586 61.835 286.331 66.1919 286.269 70.5012C286.269 70.8818 286.572 71.1934 286.953 71.204C287.336 71.204 287.648 70.8957 287.653 70.5124C287.711 66.2255 287.969 61.8882 288.414 57.6321C289.016 57.6769 289.621 57.7385 290.22 57.8141H290.307C290.694 57.8381 291.026 57.5441 291.05 57.1575C291.074 56.7709 290.78 56.4381 290.394 56.4141L290.411 56.4169Z" fill="#F6F6F6"/>
<path d="M296.066 60.0042C294.946 59.3994 293.854 59.5646 293.078 60.4606C291.793 61.939 291.58 65.3271 292.678 66.8167C293.134 67.4384 293.901 68.0376 294.778 68.0376C294.907 68.0369 295.035 68.0237 295.161 67.9984C296.354 67.7548 297.264 66.4499 297.542 64.5963C297.799 62.8463 297.444 60.7462 296.066 60.0042ZM296.155 64.3891C295.979 65.5903 295.455 66.5087 294.881 66.6291C294.517 66.7047 294.078 66.3491 293.806 65.9907C293.154 65.1059 293.218 62.4347 294.134 61.3818C294.375 61.1018 294.716 60.8694 295.402 61.239C296.035 61.5778 296.365 62.9639 296.155 64.3891Z" fill="#F6F6F6"/>
<path d="M303.848 56.627C302.972 56.2406 302.034 56.2154 301.208 56.193C301.02 56.1848 300.838 56.2548 300.704 56.3862C300.569 56.5161 300.491 56.6945 300.488 56.8818L300.292 69.2553C300.289 69.4409 300.36 69.6202 300.489 69.7536C300.618 69.887 300.795 69.9636 300.981 69.9665C301.363 69.9665 301.675 69.6599 301.681 69.2777L301.796 61.9975C302.519 61.9715 303.232 61.814 303.899 61.5327C304.937 61.0483 305.612 60.0991 305.621 59.1135C305.643 57.9403 304.744 57.019 303.848 56.627ZM303.319 60.2671C302.845 60.4624 302.341 60.5742 301.829 60.5975L301.877 57.6295C302.356 57.6414 302.83 57.7362 303.277 57.9095C303.739 58.1139 304.232 58.5703 304.226 59.0995C304.221 59.6287 303.753 60.0515 303.319 60.2559V60.2671Z" fill="#F6F6F6"/>
<path d="M310.868 211.767H271.617C271.23 211.767 270.917 211.454 270.917 211.067C270.917 210.681 271.23 210.367 271.617 210.367H310.868C311.255 210.367 311.568 210.681 311.568 211.067C311.568 211.454 311.255 211.767 310.868 211.767Z" fill="#1B1812"/>
<path d="M26.9317 201.786C25.9106 201.786 25.0828 200.958 25.0828 199.937L24.6126 74.8213C24.611 74.4217 24.2867 74.0986 23.8871 74.0986H18.2506C18.0585 74.0986 17.8739 74.1737 17.7377 74.3093C17.6016 74.4449 17.525 74.6292 17.525 74.8213L17.0548 199.94C17.0532 200.961 16.2264 201.787 15.206 201.789C12.5112 201.792 10.3274 203.976 10.3242 206.671V207.489C10.3258 208.904 11.4723 210.05 12.887 210.052H29.2507C30.6654 210.05 31.8119 208.904 31.8135 207.489V206.671C31.8119 203.975 29.6276 201.789 26.9317 201.786Z" fill="#A3B6B7"/>
<path d="M39.4902 48.2734V47.0892C39.4902 44.0388 39.2 40.942 37.0958 38.9335C35.0641 36.9947 32.1153 36.777 29.2593 36.7219L22.0266 36.5739C19.6234 36.5216 17.2203 36.4723 14.6488 36.423C11.4997 36.3562 8.23449 36.4694 5.92419 38.4836C3.16983 40.881 3.20175 44.8137 3.22788 48.285C3.22788 48.5752 3.22788 48.8858 3.22788 49.1818C3.22788 53.8953 3.5007 60.0193 4.01152 67.3798L4.02603 67.5742C4.18566 69.8961 4.36561 72.5402 5.96192 74.4732C7.72657 76.6151 14.0886 77.1695 20.23 77.1695C23.0482 77.1695 25.8171 77.0534 28.0665 76.917C30.5654 76.769 33.9902 76.5629 36.3847 74.5283C38.9765 72.3225 39.1478 68.7236 39.3016 65.5309C39.3219 65.1101 39.3422 64.6922 39.3683 64.28C39.5309 61.5924 39.5018 52.2584 39.4902 48.2734Z" fill="#D2DCD0"/>
<path d="M13.4294 75.0278C13.0645 75.0279 12.7563 74.757 12.7096 74.3951C11.2087 62.6671 11.0646 50.8051 12.2801 39.0441C12.3209 38.6433 12.6789 38.3516 13.0797 38.3925C13.4804 38.4334 13.7721 38.7914 13.7313 39.1921C12.5287 50.8451 12.6718 62.5978 14.1579 74.218C14.1826 74.409 14.1304 74.6018 14.0128 74.7543C13.8952 74.9067 13.7219 75.0061 13.531 75.0307L13.4294 75.0278Z" fill="#1B1812"/>
<path d="M51.3406 52.203C50.9678 52.2033 50.6554 51.9212 50.618 51.5503C50.5805 51.1794 50.8302 50.8405 51.1955 50.7663L54.1821 50.151C54.5622 50.0965 54.919 50.3476 54.9959 50.7239C55.0728 51.1001 54.8433 51.4711 54.4723 51.5702L51.4857 52.1855C51.4382 52.1968 51.3895 52.2027 51.3406 52.203Z" fill="#5DB36D"/>
<path d="M54.4511 64.0218H54.3292L51.0959 63.4704C50.7008 63.4022 50.4357 63.0267 50.5038 62.6316C50.572 62.2364 50.9475 61.9714 51.3426 62.0395L54.573 62.5909C54.9737 62.6246 55.2713 62.9767 55.2376 63.3775C55.204 63.7782 54.8518 64.0758 54.4511 64.0421V64.0218Z" fill="#5DB36D"/>
<path d="M46.0688 74.1159C45.8929 74.1148 45.7231 74.051 45.5899 73.936L43.7353 72.3049C43.5275 72.1375 43.4284 71.8697 43.477 71.6074C43.5257 71.3451 43.7144 71.1306 43.9684 71.049C44.2224 70.9673 44.5007 71.0317 44.6931 71.2165L46.5477 72.8447C46.775 73.044 46.855 73.3633 46.7484 73.6461C46.6419 73.929 46.3711 74.1162 46.0688 74.1159Z" fill="#5DB36D"/>
<path d="M32.3647 49.0484C33.5895 51.8405 33.9494 54.9373 33.9697 57.9848C33.9871 60.4896 33.7665 63.0611 32.7159 65.3365C31.6652 67.612 29.6509 69.5624 27.181 69.9804C24.2554 70.4854 21.2863 68.7381 19.5971 66.2972C17.9079 63.8563 17.2752 60.8437 16.9327 57.8803C16.5496 54.5977 16.5002 51.1468 17.847 48.1283C19.0718 45.3827 22.1076 42.6428 25.3148 42.7357C28.5219 42.8286 31.1631 46.3143 32.3647 49.0484Z" fill="#5DB36D"/>
<path d="M26.157 70.7989C23.1791 70.7989 20.4799 68.8542 18.9997 66.7152C17.1132 63.9927 16.5211 60.6202 16.2134 57.9848C15.8709 55.0476 15.6707 51.2397 17.1828 47.8526C18.4773 44.9502 21.7744 41.9375 25.3385 42.0304C28.9026 42.1233 31.6947 45.7193 33.0298 48.7581C34.1414 51.289 34.6697 54.2204 34.6958 57.979C34.7103 60.1819 34.5739 63.0466 33.3752 65.6413C32.1301 68.3318 29.8053 70.2851 27.3034 70.7031C26.9247 70.7678 26.5412 70.7999 26.157 70.7989ZM25.1557 43.4787C22.2765 43.4787 19.5918 46.0154 18.5092 48.4447C17.1422 51.5096 17.3337 55.065 17.653 57.8165C17.9432 60.2835 18.4889 63.4326 20.1926 65.8909C21.6002 67.9226 24.2559 69.754 27.0567 69.2722C29.0884 68.921 31.0098 67.2957 32.0575 65.0318C33.1343 62.7099 33.2562 60.0426 33.2446 57.9877C33.2214 54.4352 32.7309 51.6866 31.7005 49.3415C30.4438 46.4798 27.9768 43.56 25.295 43.4816L25.1557 43.4787Z" fill="#1B1812"/>
<path d="M34.074 54.1711L43.5184 53.9215C43.8812 51.4458 43.6141 47.6117 42.0962 45.6207C40.5782 43.6296 37.7745 42.5441 35.4497 43.47C32.2571 44.75 31.2094 50.0265 28.6233 52.3136C25.6455 54.946 19.9742 54.946 16.0241 54.4991C15.818 50.726 16.2302 48.0297 18.6043 45.551C20.9785 43.0724 23.7676 42.5325 25.57 42.6835C29.5695 43.0143 36.6803 43.1362 36.6803 43.1362" fill="#D2DCD0"/>
<path d="M19.7833 55.4454C18.5001 55.4421 17.2181 55.3665 15.9434 55.2191C15.5913 55.1787 15.3194 54.8908 15.2991 54.537C15.0901 50.6913 15.4819 47.7628 18.0825 45.0491C21.1416 41.8565 24.6273 41.8768 25.6287 41.961C29.5585 42.286 36.62 42.4079 36.6896 42.4108C36.7336 42.411 36.7773 42.4159 36.8202 42.4254C39.1108 42.3115 41.3077 43.3452 42.6802 45.1826C44.439 47.49 44.5783 51.7362 44.2445 54.0262C44.1927 54.3753 43.8979 54.6371 43.5451 54.6473L38.8229 54.7721L34.0978 54.8969C33.8386 54.9031 33.5957 54.7706 33.4607 54.5492C33.3257 54.3278 33.3191 54.0512 33.4433 53.8236C33.5675 53.596 33.8038 53.4519 34.063 53.4457L38.7823 53.3209L42.8804 53.2135C43.1126 50.7958 42.7382 47.6525 41.5279 46.062C40.1174 44.2103 37.6213 43.3889 35.7231 44.1436C34.1152 44.7879 33.0849 46.6832 31.9936 48.6887C31.1577 50.2212 30.2957 51.8059 29.1086 52.8565C26.7809 54.9143 23.0223 55.4454 19.7833 55.4454ZM16.7213 53.8404C20.0387 54.1626 25.3791 54.2119 28.145 51.7681C29.1405 50.8974 29.9039 49.484 30.7136 47.995C31.5553 46.4481 32.4173 44.8663 33.616 43.7895C31.1867 43.7198 27.8113 43.5979 25.4893 43.4064C24.6535 43.3367 21.7308 43.3222 19.1041 46.0533C17.0144 48.2591 16.5994 50.6159 16.7213 53.8404Z" fill="#1B1812"/>
<path d="M41.4112 210.339H0.725596C0.32486 210.339 0 210.015 0 209.614C0 209.213 0.32486 208.888 0.725596 208.888H41.4112C41.8119 208.888 42.1368 209.213 42.1368 209.614C42.1368 210.015 41.8119 210.339 41.4112 210.339Z" fill="#1B1812"/>
</svg>
