<svg width="258" height="40" viewBox="0 0 258 40" fill="none" xmlns="http://www.w3.org/2000/svg">
<g clip-path="url(#clip0)">
<path d="M257.832 4.17178C257.832 6.54397 255.951 8.42536 253.497 8.42536C251.125 8.42536 249.162 6.54397 249.162 4.17178C249.162 1.88139 251.043 0 253.497 0C255.951 0 257.832 1.88139 257.832 4.17178ZM250.307 4.17178C250.307 6.05317 251.697 7.52556 253.579 7.52556C255.46 7.52556 256.769 6.05317 256.769 4.17178C256.769 2.29039 255.378 0.817996 253.579 0.817996C251.697 0.817996 250.307 2.37219 250.307 4.17178ZM252.924 6.38037H251.943V2.20859C252.352 2.12679 252.843 2.04499 253.579 2.04499C254.397 2.04499 254.724 2.20859 255.051 2.37219C255.297 2.53579 255.46 2.86299 255.46 3.27198C255.46 3.76278 255.133 4.08998 254.56 4.25358V4.33538C254.969 4.49898 255.215 4.82618 255.297 5.39877C255.46 6.05317 255.46 6.29857 255.624 6.46217H254.56C254.397 6.29857 254.397 5.88957 254.233 5.39877C254.151 4.90798 253.906 4.74438 253.333 4.74438H252.843V6.38037H252.924ZM252.924 4.00818H253.415C253.988 4.00818 254.397 3.84458 254.397 3.35378C254.397 2.94479 254.151 2.69939 253.497 2.69939C253.252 2.69939 253.088 2.69939 252.924 2.78119V4.00818Z" fill="#EFF1F4"/>
<path d="M30.5112 15.7055C30.184 14.5603 29.6933 13.5787 29.0389 12.7607C28.3845 11.8609 27.6483 11.2065 26.7485 10.6339C25.8487 10.0613 24.9489 9.65235 23.9673 9.32515C22.9857 8.99795 22.0041 8.91615 20.9407 8.91615C19.4683 8.91615 18.1595 9.16155 16.8507 9.73415C15.5419 10.3067 14.4785 11.1247 13.4969 12.1063C12.5153 13.0879 11.7791 14.3149 11.2883 15.6237C10.7157 17.0143 10.4703 18.4867 10.4703 20.0409C10.4703 21.6769 10.7157 23.1493 11.2883 24.4581C11.8609 25.8487 12.5971 26.9939 13.4969 27.9755C14.4785 28.9571 15.5419 29.775 16.8507 30.3476C18.1595 30.9202 19.4683 31.1656 20.9407 31.1656C21.9223 31.1656 22.9857 31.002 23.9673 30.7566C24.9489 30.4294 25.8487 30.0205 26.7485 29.4479C27.5665 28.8753 28.3845 28.1391 28.9571 27.3211C29.6115 26.5031 30.1022 25.4397 30.4294 24.3763H41.227C40.8998 26.0941 40.409 27.7301 39.591 29.1207C38.8548 30.593 37.955 31.9018 36.8916 33.047C35.8282 34.1922 34.683 35.2556 33.456 36.0736C32.1472 36.9734 30.8384 37.6278 29.4479 38.2822C28.0573 38.8548 26.6667 39.2638 25.1943 39.591C23.7219 39.9182 22.3313 40 20.9407 40C18.9775 40 17.0961 39.7546 15.2965 39.2638C13.4969 38.773 11.8609 38.1186 10.3067 37.2188C8.75256 36.319 7.36196 35.3374 6.05317 34.1104C4.74438 32.8834 3.68098 31.4928 2.78119 30.0205C1.88139 28.5481 1.14519 26.9121 0.654397 25.2761C0.245399 23.6401 0 21.8405 0 19.9591C0 18.0777 0.245399 16.3599 0.736196 14.6421C1.22699 12.9243 1.96319 11.3701 2.86299 9.89775C3.76278 8.42536 4.90798 7.11656 6.13497 5.88957C7.44376 4.66258 8.83436 3.59918 10.3885 2.78119C11.9427 1.96319 13.5787 1.22699 15.3783 0.817996C17.1779 0.245399 19.0593 0 21.0225 0C22.4131 0 23.8037 0.163599 25.1943 0.408998C26.6667 0.654397 28.0573 1.06339 29.4479 1.63599C30.8384 2.20859 32.1472 2.94479 33.456 3.76278C34.7648 4.58078 35.91 5.64417 36.9734 6.78937C38.0368 7.93456 38.9366 9.24335 39.6728 10.7157C40.409 12.1881 40.9816 13.8241 41.3088 15.6237L30.5112 15.7055Z" fill="#363636"/>
<path d="M47.5254 0.981598H58.0775V30.2658H73.0469V39.1002H47.5254V0.981598Z" fill="#363636"/>
<path d="M89.1615 0.981598H78.6094V39.1002H89.1615V0.981598Z" fill="#363636"/>
<path d="M132.106 39.1002H122.945L106.912 18.5685V39.1002H96.3599V0.981598H105.603L121.554 21.4315V0.981598H132.106V39.1002Z" fill="#363636"/>
<path d="M179.141 0.981598H206.626V9.81595H189.693V15.8691H204.172V24.6217H189.693V30.2658H206.871V39.1002H179.141V0.981598Z" fill="#363636"/>
<path d="M226.748 27.3211H223.231V39.1002H212.679V0.981598H229.611C231.656 0.981598 233.619 1.3088 235.337 1.96319C237.055 2.61759 238.609 3.51739 239.836 4.66258C241.063 5.80777 242.045 7.19837 242.781 8.83436C243.517 10.4704 243.844 12.2699 243.844 14.2331C243.844 15.5419 243.681 16.7689 243.354 17.9959C243.026 19.1411 242.617 20.2045 242.045 21.1861C241.472 22.1677 240.736 22.9857 239.918 23.8037C239.1 24.5399 238.118 25.1943 237.137 25.7669L244.826 39.182H232.72L226.748 27.3211ZM229.12 18.4867C229.693 18.4867 230.184 18.4049 230.756 18.1595C231.247 17.9141 231.738 17.6687 232.065 17.2597C232.474 16.8507 232.72 16.4417 232.965 15.8691C233.21 15.2965 233.292 14.7239 233.292 14.0695C233.292 13.4151 233.21 12.8425 232.965 12.3517C232.72 11.7791 232.474 11.3701 232.065 10.9611C231.656 10.5521 231.247 10.225 230.756 10.0614C230.266 9.81595 229.775 9.73415 229.202 9.73415H223.231V18.4867H229.12Z" fill="#363636"/>
<path d="M162.045 17.9959V0.981598H172.597V39.1002H162.045V31.9836V17.9959Z" fill="#337DFF"/>
<path d="M136.687 39.1002L150.266 19.2229L137.096 0.981598H149.366L162.045 17.9959V20.3681L149.121 39.1002H136.687Z" fill="#004FFF"/>
</g>
<defs>
<clipPath id="clip0">
<rect width="257.832" height="40" fill="white"/>
</clipPath>
</defs>
</svg>
