<svg width="250" height="111" viewBox="0 0 250 111" fill="none" xmlns="http://www.w3.org/2000/svg">
<path d="M79.3516 88.0596H89.5781L84.5469 72.2002L79.3516 88.0596ZM79.8711 62.9854H89.3867L103.66 103.29H94.5273L91.9297 95.0049H77.082L74.293 103.29H65.4883L79.8711 62.9854Z" fill="#323232"/>
<path d="M125.973 84.1768C125.827 83.0648 125.453 82.0622 124.852 81.1689C123.977 79.9658 122.618 79.3643 120.777 79.3643C118.152 79.3643 116.357 80.6676 115.391 83.2744C114.88 84.6598 114.625 86.501 114.625 88.7979C114.625 90.9854 114.88 92.7445 115.391 94.0752C116.32 96.5544 118.07 97.7939 120.641 97.7939C122.464 97.7939 123.758 97.3018 124.523 96.3174C125.289 95.333 125.754 94.057 125.918 92.4893H133.875C133.693 94.8591 132.836 97.1012 131.305 99.2158C128.862 102.625 125.243 104.329 120.449 104.329C115.655 104.329 112.128 102.907 109.867 100.063C107.607 97.2197 106.477 93.5283 106.477 88.9893C106.477 83.8669 107.725 79.8838 110.223 77.04C112.72 74.1963 116.165 72.7744 120.559 72.7744C124.296 72.7744 127.349 73.613 129.719 75.29C132.107 76.9671 133.52 79.9294 133.957 84.1768H125.973Z" fill="#323232"/>
<path d="M157.145 84.1768C156.999 83.0648 156.625 82.0622 156.023 81.1689C155.148 79.9658 153.79 79.3643 151.949 79.3643C149.324 79.3643 147.529 80.6676 146.562 83.2744C146.052 84.6598 145.797 86.501 145.797 88.7979C145.797 90.9854 146.052 92.7445 146.562 94.0752C147.492 96.5544 149.242 97.7939 151.812 97.7939C153.635 97.7939 154.93 97.3018 155.695 96.3174C156.461 95.333 156.926 94.057 157.09 92.4893H165.047C164.865 94.8591 164.008 97.1012 162.477 99.2158C160.034 102.625 156.415 104.329 151.621 104.329C146.827 104.329 143.299 102.907 141.039 100.063C138.779 97.2197 137.648 93.5283 137.648 88.9893C137.648 83.8669 138.897 79.8838 141.395 77.04C143.892 74.1963 147.337 72.7744 151.73 72.7744C155.467 72.7744 158.521 73.613 160.891 75.29C163.279 76.9671 164.691 79.9294 165.129 84.1768H157.145Z" fill="#323232"/>
<path d="M178.527 69.9307H170.625V62.7393H178.527V69.9307ZM170.625 73.4854H178.527V103.29H170.625V73.4854Z" fill="#323232"/>
<path d="M199.473 97.7939C201.751 97.7939 203.501 96.9827 204.723 95.3604C205.944 93.738 206.555 91.432 206.555 88.4424C206.555 85.4528 205.944 83.1559 204.723 81.5518C203.501 79.9294 201.751 79.1182 199.473 79.1182C197.194 79.1182 195.435 79.9294 194.195 81.5518C192.974 83.1559 192.363 85.4528 192.363 88.4424C192.363 91.432 192.974 93.738 194.195 95.3604C195.435 96.9827 197.194 97.7939 199.473 97.7939ZM214.73 88.4424C214.73 92.8174 213.473 96.5635 210.957 99.6807C208.441 102.78 204.622 104.329 199.5 104.329C194.378 104.329 190.559 102.78 188.043 99.6807C185.527 96.5635 184.27 92.8174 184.27 88.4424C184.27 84.1403 185.527 80.4124 188.043 77.2588C190.559 74.1051 194.378 72.5283 199.5 72.5283C204.622 72.5283 208.441 74.1051 210.957 77.2588C213.473 80.4124 214.73 84.1403 214.73 88.4424ZM208.824 61.29L200.512 69.4658H194.879L200.129 61.29H208.824Z" fill="#323232"/>
<path d="M236.852 72.7744C239.932 72.7744 242.448 73.5856 244.398 75.208C246.367 76.8122 247.352 79.4827 247.352 83.2197V103.29H239.367V85.1611C239.367 83.5934 239.158 82.3903 238.738 81.5518C237.973 80.0205 236.514 79.2549 234.363 79.2549C231.72 79.2549 229.906 80.376 228.922 82.6182C228.411 83.8031 228.156 85.3161 228.156 87.1572V103.29H220.391V73.54H227.91V77.8877C228.913 76.3564 229.861 75.2536 230.754 74.5791C232.358 73.376 234.391 72.7744 236.852 72.7744Z" fill="#323232"/>
<path d="M0 78.0721V90.604H19.6861V110.29H32.3139V90.604H52V78.0721H32.3139V58.29H19.6861V78.0721H0Z" fill="#323232"/>
<path d="M74.153 23.8309H83.2569L78.7779 9.71249L74.153 23.8309ZM74.6155 1.50921H83.0865L95.7931 37.3894H87.6628L85.3503 30.0138H72.1326L69.6497 37.3894H61.8115L74.6155 1.50921Z" fill="#B0B0B0"/>
<path d="M114.512 10.2237C117.255 10.2237 119.494 10.9458 121.231 12.3901C122.983 13.8182 123.859 16.1956 123.859 19.5223V37.3894H116.752V21.2506C116.752 19.855 116.565 18.784 116.192 18.0375C115.51 16.6743 114.212 15.9927 112.297 15.9927C109.944 15.9927 108.329 16.9908 107.453 18.9868C106.999 20.0416 106.771 21.3886 106.771 23.0276V37.3894H99.8582V10.9052H106.552V14.7756C107.445 13.4125 108.289 12.4307 109.084 11.8302C110.512 10.7592 112.321 10.2237 114.512 10.2237Z" fill="#B0B0B0"/>
<path d="M144.915 24.4881C144.477 24.764 144.031 24.9912 143.577 25.1697C143.138 25.332 142.53 25.4861 141.751 25.6322L140.193 25.9243C138.732 26.184 137.686 26.5004 137.053 26.8736C135.982 27.5065 135.446 28.4883 135.446 29.819C135.446 31.0037 135.771 31.8638 136.42 32.3993C137.085 32.9186 137.889 33.1782 138.83 33.1782C140.323 33.1782 141.694 32.7401 142.944 31.8638C144.209 30.9875 144.867 29.389 144.915 27.0684V24.4881ZM140.704 21.2506C141.986 21.0883 142.903 20.8855 143.455 20.6421C144.445 20.2201 144.94 19.5629 144.94 18.6704C144.94 17.5831 144.558 16.8366 143.796 16.4309C143.049 16.009 141.946 15.798 140.485 15.798C138.846 15.798 137.686 16.2037 137.004 17.0151C136.517 17.6155 136.193 18.4269 136.03 19.4493H129.336C129.482 17.1287 130.132 15.2219 131.284 13.7289C133.118 11.3921 136.266 10.2237 140.729 10.2237C143.633 10.2237 146.214 10.7998 148.469 11.952C150.725 13.1041 151.853 15.2787 151.853 18.4756V30.6467C151.853 31.4905 151.869 32.5129 151.902 33.7138C151.95 34.6225 152.088 35.2392 152.315 35.5638C152.543 35.8883 152.883 36.1561 153.338 36.3671V37.3894H145.792C145.581 36.8539 145.435 36.3508 145.354 35.8802C145.272 35.4096 145.207 34.8741 145.159 34.2736C144.201 35.3122 143.098 36.1967 141.848 36.9269C140.355 37.787 138.668 38.217 136.785 38.217C134.383 38.217 132.395 37.5355 130.821 36.1723C129.263 34.7929 128.484 32.8456 128.484 30.3302C128.484 27.0684 129.742 24.7072 132.257 23.2467C133.637 22.4515 135.665 21.8835 138.343 21.5427L140.704 21.2506ZM149.37 0L141.97 7.27828H136.955L141.629 0H149.37Z" fill="#B0B0B0"/>
<path d="M165.119 37.3894H158.182V1.50921H165.119V37.3894Z" fill="#B0B0B0"/>
<path d="M179.043 7.69209H172.008V1.29013H179.043V7.69209ZM172.008 10.8566H179.043V37.3894H172.008V10.8566Z" fill="#B0B0B0"/>
<path d="M191.19 28.9184C191.336 30.1517 191.652 31.028 192.139 31.5473C192.999 32.4723 194.589 32.9348 196.91 32.9348C198.273 32.9348 199.352 32.732 200.147 32.3263C200.959 31.9206 201.365 31.312 201.365 30.5006C201.365 29.7217 201.04 29.1293 200.391 28.7236C199.742 28.3179 197.332 27.6201 193.161 26.6302C190.159 25.8837 188.041 24.9506 186.808 23.8309C185.575 22.7274 184.958 21.137 184.958 19.0598C184.958 16.6094 185.916 14.5079 187.83 12.7552C189.762 10.9864 192.472 10.102 195.961 10.102C199.271 10.102 201.965 10.7673 204.042 12.098C206.136 13.4125 207.337 15.6925 207.645 18.9381H200.707C200.61 18.0456 200.358 17.3397 199.953 16.8204C199.19 15.8791 197.892 15.4085 196.058 15.4085C194.549 15.4085 193.47 15.6438 192.821 16.1144C192.188 16.5851 191.871 17.1368 191.871 17.7697C191.871 18.5649 192.212 19.141 192.894 19.498C193.575 19.8712 195.985 20.5122 200.123 21.421C202.882 22.0701 204.951 23.0519 206.33 24.3664C207.694 25.6971 208.375 27.3605 208.375 29.3565C208.375 31.9855 207.393 34.1357 205.43 35.8072C203.482 37.4624 200.464 38.2901 196.374 38.2901C192.204 38.2901 189.121 37.4138 187.124 35.6611C185.145 33.8923 184.155 31.6447 184.155 28.9184H191.19Z" fill="#B0B0B0"/>
<path d="M220.668 7.69209H213.633V1.29013H220.668V7.69209ZM213.633 10.8566H220.668V37.3894H213.633V10.8566Z" fill="#B0B0B0"/>
<path d="M232.815 28.9184C232.961 30.1517 233.277 31.028 233.764 31.5473C234.624 32.4723 236.214 32.9348 238.535 32.9348C239.898 32.9348 240.977 32.732 241.772 32.3263C242.584 31.9206 242.99 31.312 242.99 30.5006C242.99 29.7217 242.665 29.1293 242.016 28.7236C241.367 28.3179 238.957 27.6201 234.786 26.6302C231.784 25.8837 229.666 24.9506 228.433 23.8309C227.2 22.7274 226.583 21.137 226.583 19.0598C226.583 16.6094 227.54 14.5079 229.455 12.7552C231.386 10.9864 234.097 10.102 237.586 10.102C240.896 10.102 243.59 10.7673 245.667 12.098C247.761 13.4125 248.961 15.6925 249.27 18.9381H242.332C242.235 18.0456 241.983 17.3397 241.578 16.8204C240.815 15.8791 239.517 15.4085 237.683 15.4085C236.174 15.4085 235.095 15.6438 234.445 16.1144C233.813 16.5851 233.496 17.1368 233.496 17.7697C233.496 18.5649 233.837 19.141 234.518 19.498C235.2 19.8712 237.61 20.5122 241.748 21.421C244.507 22.0701 246.576 23.0519 247.955 24.3664C249.318 25.6971 250 27.3605 250 29.3565C250 31.9855 249.018 34.1357 247.055 35.8072C245.107 37.4624 242.089 38.2901 237.999 38.2901C233.829 38.2901 230.745 37.4138 228.749 35.6611C226.77 33.8923 225.78 31.6447 225.78 28.9184H232.815Z" fill="#B0B0B0"/>
<path d="M0 12.4631H48.9623V28.4872H0V12.4631Z" fill="#B0B0B0"/>
</svg>
