<svg width="283" height="127" viewBox="0 0 283 127" fill="none" xmlns="http://www.w3.org/2000/svg">
<g filter="url(#filter0_d)">
<path d="M206.854 33.809C206.854 15.1368 221.991 0 240.663 0C259.335 0 274.472 15.1368 274.472 33.809V67.6179H240.663C221.991 67.6179 206.854 52.4811 206.854 33.809Z" fill="white"/>
</g>
<path d="M223.387 36.6705C224.311 35.9492 225.423 35.4943 226.598 35.3571C227.093 35.2774 227.593 35.2233 228.1 35.1844L228.044 34.9592C227.762 33.7867 227.177 31.3444 228.788 29.7012C229.716 28.7589 230.987 28.5016 232.103 28.3324C237.965 27.4273 243.918 27.2137 249.833 27.6961C251.495 27.843 253.376 28.1732 254.766 29.5228C256.283 31.0176 256.89 33.0615 257.424 34.8808L257.667 35.6932C258.685 38.9605 259.517 42.2805 260.159 45.6379C260.535 47.6126 260.704 49.8478 259.177 51.4622C257.925 52.7827 256.144 53.017 254.424 53.1511L239.323 54.2972C238.984 54.3094 238.61 54.3486 238.219 54.3627C236.884 54.478 235.545 54.2063 234.368 53.5817C232.245 52.3203 231.63 49.7603 231.26 48.2295L231.166 47.8352C227.345 48.349 223.668 46.2153 222.307 42.6946C221.547 40.7956 221.603 38.2114 223.387 36.6705Z" fill="#B17606"/>
<path d="M247.871 48.3766C249.046 48.3365 250.193 48.0114 251.207 47.4305C251.815 47.0585 252.008 46.2816 251.642 45.6796C251.276 45.0776 250.484 44.8701 249.858 45.2118C248.75 45.8538 247.409 45.987 246.191 45.5759C244.973 45.1649 244.002 44.2514 243.537 43.0787C243.361 42.6371 242.952 42.325 242.47 42.2658C241.988 42.2065 241.512 42.4096 241.229 42.7948L240.917 43.214C240.492 43.7932 240.627 44.598 241.218 45.0159C241.365 45.1184 241.531 45.1914 241.707 45.2307C242.563 46.5249 243.837 47.504 245.327 48.0134C246.145 48.2867 247.007 48.4098 247.871 48.3766Z" fill="#1B1812"/>
<path d="M224.046 28.8903L224.181 27.9611C224.795 23.7612 225.494 19.0005 229.152 16.1942C233.314 13.0031 240.102 13.4721 242.083 13.6644C249.222 14.441 253.569 18.6849 255.007 26.2299C255.13 26.8842 254.724 27.5228 254.068 27.7044C247.891 29.3932 241.53 30.3549 235.12 30.5689C231.818 30.7007 228.511 30.6314 225.219 30.3614C224.856 30.3319 224.521 30.1571 224.295 29.8786C224.069 29.6 223.971 29.2425 224.025 28.8911L224.046 28.8903Z" fill="#FA4A1B"/>
<path d="M218.842 27.7296C219.088 27.4774 219.428 27.333 219.785 27.3291C234.6 27.164 247.916 26.8359 260.957 24.2557C261.598 24.1281 262.238 24.479 262.46 25.0797C263.289 27.286 261.958 29.5958 260.222 30.7374C258.641 31.7753 256.826 32.0677 254.951 32.3002C250.651 32.8367 242.682 33.4481 235.561 33.7036C228.737 33.9485 222.694 33.8659 221.457 33.0788C219.087 31.5733 218.535 29.8476 218.491 28.6666C218.475 28.3211 218.601 27.9837 218.842 27.7296Z" fill="#FA4A1B"/>
<path d="M236.012 26.71C240.949 26.5328 246.577 26.1553 252.95 25.5857C253.421 25.543 253.833 25.2582 254.031 24.8388C254.229 24.4193 254.182 23.9288 253.908 23.5521C253.635 23.1754 253.176 22.9697 252.705 23.0124C241.833 24.0068 233.251 24.3974 226.469 24.2122C225.996 24.1997 225.551 24.4344 225.304 24.828C225.056 25.2216 225.042 25.7142 225.268 26.1203C225.493 26.5265 225.924 26.7844 226.397 26.7969C229.274 26.8589 232.47 26.8371 236.012 26.71Z" fill="#DB3414"/>
<g filter="url(#filter1_d)">
<path d="M4 96.1442C4 83.8906 13.9335 73.9571 26.1871 73.9571H275V98.3314C275 109.377 266.046 118.331 255 118.331H26.1871C13.9335 118.331 4 108.398 4 96.1442Z" fill="white"/>
</g>
<path d="M57.6291 98.8454C57.7254 99.5401 57.9146 100.059 58.1966 100.403C58.7125 101.029 59.5963 101.342 60.8482 101.342C61.598 101.342 62.2067 101.26 62.6744 101.095C63.5618 100.778 64.0054 100.19 64.0054 99.3303C64.0054 98.8282 63.7853 98.4395 63.3451 98.1644C62.9049 97.8961 62.2136 97.6588 61.2712 97.4525L59.6617 97.0914C58.0796 96.7337 56.986 96.3451 56.3807 95.9255C55.3558 95.2239 54.8433 94.1268 54.8433 92.6341C54.8433 91.2722 55.3386 90.1407 56.3291 89.2396C57.3196 88.3385 58.7744 87.888 60.6935 87.888C62.2961 87.888 63.6615 88.3145 64.7896 89.1674C65.9245 90.0134 66.5195 91.2447 66.5745 92.8611H63.5205C63.4655 91.9463 63.0665 91.2963 62.3236 90.9111C61.8284 90.6566 61.2128 90.5293 60.4768 90.5293C59.6582 90.5293 59.0048 90.6944 58.5164 91.0246C58.0281 91.3547 57.7839 91.8156 57.7839 92.4071C57.7839 92.9505 58.0246 93.3564 58.5061 93.6246C58.8156 93.8035 59.476 94.0133 60.4871 94.254L63.1078 94.8834C64.2565 95.1585 65.1232 95.5265 65.7078 95.9874C66.6158 96.7027 67.0698 97.7379 67.0698 99.093C67.0698 100.482 66.5367 101.638 65.4705 102.56C64.4113 103.475 62.9118 103.932 60.972 103.932C58.991 103.932 57.4331 103.481 56.2981 102.58C55.1632 101.672 54.5957 100.427 54.5957 98.8454H57.6291Z" fill="black"/>
<path d="M68.0293 94.4913V92.3968H69.5976V89.2603H72.5072V92.3968H74.3334V94.4913H72.5072V100.434C72.5072 100.895 72.5657 101.184 72.6826 101.301C72.7995 101.411 73.1572 101.466 73.7556 101.466C73.8451 101.466 73.9379 101.466 74.0342 101.466C74.1374 101.459 74.2371 101.452 74.3334 101.445V103.643L72.9405 103.695C71.5511 103.743 70.6019 103.502 70.0929 102.972C69.7627 102.635 69.5976 102.116 69.5976 101.414V94.4913H68.0293Z" fill="black"/>
<path d="M82.4225 98.0715C82.2368 98.1885 82.0476 98.2848 81.855 98.3604C81.6693 98.4292 81.4113 98.4946 81.0812 98.5565L80.4209 98.6803C79.8018 98.7903 79.3581 98.9245 79.0899 99.0827C78.6359 99.3509 78.4089 99.7671 78.4089 100.331C78.4089 100.833 78.5465 101.198 78.8216 101.425C79.1036 101.645 79.4441 101.755 79.8431 101.755C80.4759 101.755 81.0571 101.569 81.5867 101.198C82.1233 100.826 82.4018 100.149 82.4225 99.1652V98.0715ZM80.6375 96.6993C81.1809 96.6305 81.5696 96.5445 81.8034 96.4414C82.223 96.2625 82.4328 95.9839 82.4328 95.6056C82.4328 95.1448 82.2712 94.8284 81.9479 94.6564C81.6315 94.4776 81.1637 94.3881 80.5447 94.3881C79.8499 94.3881 79.3581 94.5601 79.0692 94.904C78.8629 95.1585 78.7253 95.5024 78.6565 95.9358H75.8192C75.8811 94.9522 76.1562 94.144 76.6446 93.5111C77.4218 92.5206 78.7563 92.0254 80.6478 92.0254C81.8791 92.0254 82.9728 92.2696 83.9289 92.7579C84.885 93.2463 85.363 94.168 85.363 95.5231V100.682C85.363 101.04 85.3699 101.473 85.3837 101.982C85.4043 102.367 85.4628 102.629 85.5591 102.766C85.6554 102.904 85.7998 103.017 85.9924 103.107V103.54H82.7939C82.7045 103.313 82.6426 103.1 82.6082 102.9C82.5738 102.701 82.5463 102.474 82.5257 102.219C82.1198 102.659 81.6521 103.034 81.1225 103.344C80.4896 103.708 79.7743 103.891 78.9764 103.891C77.9584 103.891 77.1158 103.602 76.4485 103.024C75.7882 102.439 75.458 101.614 75.458 100.548C75.458 99.1652 75.9911 98.1644 77.0573 97.5453C77.642 97.2083 78.5018 96.9676 79.6367 96.8231L80.6375 96.6993Z" fill="black"/>
<path d="M86.8281 94.4913V92.3968H88.3964V89.2603H91.306V92.3968H93.1322V94.4913H91.306V100.434C91.306 100.895 91.3645 101.184 91.4814 101.301C91.5983 101.411 91.956 101.466 92.5544 101.466C92.6439 101.466 92.7367 101.466 92.833 101.466C92.9362 101.459 93.0359 101.452 93.1322 101.445V103.643L91.7393 103.695C90.3499 103.743 89.4007 103.502 88.8917 102.972C88.5615 102.635 88.3964 102.116 88.3964 101.414V94.4913H86.8281Z" fill="black"/>
<path d="M98.0434 90.9524H95.0616V88.2388H98.0434V90.9524ZM95.0616 92.2936H98.0434V103.54H95.0616V92.2936Z" fill="black"/>
<path d="M105.947 101.466C106.807 101.466 107.467 101.16 107.928 100.548C108.389 99.9356 108.619 99.0655 108.619 97.9374C108.619 96.8094 108.389 95.9427 107.928 95.3374C107.467 94.7252 106.807 94.4191 105.947 94.4191C105.087 94.4191 104.423 94.7252 103.955 95.3374C103.495 95.9427 103.264 96.8094 103.264 97.9374C103.264 99.0655 103.495 99.9356 103.955 100.548C104.423 101.16 105.087 101.466 105.947 101.466ZM111.704 97.9374C111.704 99.5882 111.229 101.002 110.28 102.178C109.331 103.347 107.89 103.932 105.957 103.932C104.024 103.932 102.583 103.347 101.634 102.178C100.685 101.002 100.21 99.5882 100.21 97.9374C100.21 96.3141 100.685 94.9075 101.634 93.7175C102.583 92.5275 104.024 91.9325 105.957 91.9325C107.89 91.9325 109.331 92.5275 110.28 93.7175C111.229 94.9075 111.704 96.3141 111.704 97.9374Z" fill="black"/>
<path d="M120.051 92.0254C121.214 92.0254 122.163 92.3315 122.899 92.9437C123.642 93.549 124.013 94.5567 124.013 95.9667V103.54H121V96.6993C121 96.1078 120.921 95.6538 120.763 95.3374C120.474 94.7596 119.924 94.4707 119.112 94.4707C118.115 94.4707 117.43 94.8937 117.059 95.7398C116.866 96.1869 116.77 96.7578 116.77 97.4525V103.54H113.84V92.3143H116.677V93.9548C117.055 93.377 117.413 92.9609 117.75 92.7064C118.356 92.2524 119.122 92.0254 120.051 92.0254Z" fill="black"/>
<path d="M135.94 90.973V94.3262H139.675C140.342 94.3262 140.882 94.2024 141.295 93.9548C141.715 93.7003 141.925 93.2532 141.925 92.6135C141.925 91.905 141.649 91.4373 141.099 91.2103C140.624 91.0521 140.019 90.973 139.283 90.973H135.94ZM135.94 96.8437V100.899H139.675C140.342 100.899 140.862 100.809 141.233 100.63C141.907 100.3 142.244 99.6673 142.244 98.7319C142.244 97.9409 141.918 97.3975 141.264 97.1017C140.9 96.9366 140.387 96.8506 139.727 96.8437H135.94ZM140.294 88.3317C142.158 88.3592 143.479 88.8991 144.256 89.9515C144.724 90.5981 144.958 91.3719 144.958 92.273C144.958 93.2016 144.724 93.9479 144.256 94.512C143.995 94.8284 143.61 95.1173 143.101 95.3786C143.878 95.6607 144.463 96.1077 144.855 96.7199C145.254 97.3321 145.453 98.075 145.453 98.9486C145.453 99.8496 145.226 100.658 144.772 101.373C144.483 101.848 144.122 102.247 143.689 102.57C143.2 102.941 142.623 103.196 141.955 103.334C141.295 103.471 140.576 103.54 139.799 103.54H132.907V88.3317H140.294Z" fill="black"/>
<path d="M154.089 98.0715C153.903 98.1885 153.714 98.2848 153.522 98.3604C153.336 98.4292 153.078 98.4946 152.748 98.5565L152.087 98.6803C151.468 98.7903 151.025 98.9245 150.756 99.0827C150.302 99.3509 150.075 99.7671 150.075 100.331C150.075 100.833 150.213 101.198 150.488 101.425C150.77 101.645 151.111 101.755 151.51 101.755C152.142 101.755 152.724 101.569 153.253 101.198C153.79 100.826 154.068 100.149 154.089 99.1652V98.0715ZM152.304 96.6993C152.848 96.6305 153.236 96.5445 153.47 96.4414C153.89 96.2625 154.099 95.9839 154.099 95.6056C154.099 95.1448 153.938 94.8284 153.614 94.6564C153.298 94.4776 152.83 94.3881 152.211 94.3881C151.517 94.3881 151.025 94.5601 150.736 94.904C150.529 95.1585 150.392 95.5024 150.323 95.9358H147.486C147.548 94.9522 147.823 94.144 148.311 93.5111C149.088 92.5206 150.423 92.0254 152.314 92.0254C153.546 92.0254 154.639 92.2696 155.595 92.7579C156.552 93.2463 157.03 94.168 157.03 95.5231V100.682C157.03 101.04 157.036 101.473 157.05 101.982C157.071 102.367 157.129 102.629 157.226 102.766C157.322 102.904 157.466 103.017 157.659 103.107V103.54H154.461C154.371 103.313 154.309 103.1 154.275 102.9C154.24 102.701 154.213 102.474 154.192 102.219C153.786 102.659 153.319 103.034 152.789 103.344C152.156 103.708 151.441 103.891 150.643 103.891C149.625 103.891 148.782 103.602 148.115 103.024C147.455 102.439 147.125 101.614 147.125 100.548C147.125 99.1652 147.658 98.1644 148.724 97.5453C149.309 97.2083 150.168 96.9676 151.303 96.8231L152.304 96.6993Z" fill="black"/>
<path d="M162.653 103.54H159.712V88.3317H162.653V103.54Z" fill="black"/>
<path d="M171.732 98.0715C171.547 98.1885 171.357 98.2848 171.165 98.3604C170.979 98.4292 170.721 98.4946 170.391 98.5565L169.731 98.6803C169.112 98.7903 168.668 98.9245 168.4 99.0827C167.946 99.3509 167.719 99.7671 167.719 100.331C167.719 100.833 167.856 101.198 168.131 101.425C168.413 101.645 168.754 101.755 169.153 101.755C169.786 101.755 170.367 101.569 170.897 101.198C171.433 100.826 171.712 100.149 171.732 99.1652V98.0715ZM169.947 96.6993C170.491 96.6305 170.879 96.5445 171.113 96.4414C171.533 96.2625 171.743 95.9839 171.743 95.6056C171.743 95.1448 171.581 94.8284 171.258 94.6564C170.941 94.4776 170.474 94.3881 169.854 94.3881C169.16 94.3881 168.668 94.5601 168.379 94.904C168.173 95.1585 168.035 95.5024 167.966 95.9358H165.129C165.191 94.9522 165.466 94.144 165.954 93.5111C166.732 92.5206 168.066 92.0254 169.958 92.0254C171.189 92.0254 172.283 92.2696 173.239 92.7579C174.195 93.2463 174.673 94.168 174.673 95.5231V100.682C174.673 101.04 174.68 101.473 174.693 101.982C174.714 102.367 174.773 102.629 174.869 102.766C174.965 102.904 175.11 103.017 175.302 103.107V103.54H172.104C172.014 103.313 171.952 103.1 171.918 102.9C171.884 102.701 171.856 102.474 171.835 102.219C171.43 102.659 170.962 103.034 170.432 103.344C169.799 103.708 169.084 103.891 168.286 103.891C167.268 103.891 166.426 103.602 165.758 103.024C165.098 102.439 164.768 101.614 164.768 100.548C164.768 99.1652 165.301 98.1644 166.367 97.5453C166.952 97.2083 167.812 96.9676 168.947 96.8231L169.947 96.6993Z" fill="black"/>
<path d="M183.525 92.0254C184.688 92.0254 185.637 92.3315 186.373 92.9437C187.116 93.549 187.487 94.5567 187.487 95.9667V103.54H184.475V96.6993C184.475 96.1078 184.396 95.6538 184.237 95.3374C183.948 94.7596 183.398 94.4707 182.587 94.4707C181.589 94.4707 180.905 94.8937 180.533 95.7398C180.341 96.1869 180.244 96.7578 180.244 97.4525V103.54H177.314V92.3143H180.152V93.9548C180.53 93.377 180.888 92.9609 181.225 92.7064C181.83 92.2524 182.597 92.0254 183.525 92.0254Z" fill="black"/>
<path d="M196.928 96.3279C196.873 95.9083 196.732 95.53 196.505 95.1929C196.175 94.7389 195.662 94.512 194.968 94.512C193.977 94.512 193.3 95.0038 192.935 95.9874C192.743 96.5101 192.646 97.2049 192.646 98.0715C192.646 98.897 192.743 99.5607 192.935 100.063C193.286 100.998 193.946 101.466 194.916 101.466C195.604 101.466 196.092 101.28 196.381 100.909C196.67 100.537 196.846 100.056 196.907 99.4644H199.91C199.841 100.359 199.518 101.205 198.94 102.003C198.018 103.289 196.653 103.932 194.844 103.932C193.035 103.932 191.704 103.395 190.851 102.322C189.998 101.249 189.572 99.8565 189.572 98.1438C189.572 96.2109 190.043 94.708 190.985 93.6349C191.927 92.5619 193.227 92.0254 194.885 92.0254C196.295 92.0254 197.447 92.3418 198.342 92.9746C199.243 93.6074 199.776 94.7252 199.941 96.3279H196.928Z" fill="black"/>
<path d="M206.41 94.4191C205.729 94.4191 205.199 94.6323 204.821 95.0588C204.45 95.4853 204.216 96.063 204.119 96.7922H208.69C208.642 96.0149 208.405 95.4268 207.978 95.0278C207.559 94.622 207.036 94.4191 206.41 94.4191ZM206.41 91.9944C207.345 91.9944 208.188 92.1698 208.938 92.5206C209.688 92.8714 210.307 93.4252 210.795 94.1818C211.235 94.849 211.521 95.6228 211.651 96.5033C211.727 97.0191 211.758 97.762 211.744 98.7319H204.047C204.089 99.8599 204.443 100.651 205.11 101.105C205.516 101.387 206.004 101.528 206.575 101.528C207.18 101.528 207.672 101.356 208.051 101.012C208.257 100.826 208.439 100.568 208.597 100.238H211.6C211.524 100.905 211.177 101.583 210.558 102.271C209.595 103.365 208.247 103.911 206.513 103.911C205.082 103.911 203.82 103.45 202.727 102.529C201.633 101.607 201.086 100.108 201.086 98.0303C201.086 96.0837 201.578 94.5911 202.562 93.5524C203.552 92.5138 204.835 91.9944 206.41 91.9944Z" fill="black"/>
<path d="M217.883 92.0254C218.564 92.0254 219.17 92.1767 219.699 92.4794C220.229 92.7751 220.659 93.1878 220.989 93.7175V88.3523H223.971V103.54H221.113V101.982C220.693 102.649 220.215 103.134 219.679 103.437C219.142 103.739 218.475 103.891 217.677 103.891C216.363 103.891 215.256 103.361 214.355 102.302C213.46 101.236 213.013 99.8703 213.013 98.2057C213.013 96.2866 213.454 94.7768 214.334 93.6762C215.221 92.5757 216.404 92.0254 217.883 92.0254ZM218.523 101.414C219.355 101.414 219.988 101.105 220.421 100.486C220.855 99.8668 221.071 99.0655 221.071 98.0819C221.071 96.7062 220.724 95.7226 220.029 95.131C219.603 94.7733 219.108 94.5945 218.544 94.5945C217.684 94.5945 217.051 94.9212 216.645 95.5747C216.246 96.2212 216.047 97.026 216.047 97.989C216.047 99.0277 216.25 99.8599 216.655 100.486C217.068 101.105 217.691 101.414 218.523 101.414Z" fill="black"/>
<defs>
<filter id="filter0_d" x="202.854" y="0" width="75.6179" height="75.6179" filterUnits="userSpaceOnUse" color-interpolation-filters="sRGB">
<feFlood flood-opacity="0" result="BackgroundImageFix"/>
<feColorMatrix in="SourceAlpha" type="matrix" values="0 0 0 0 0 0 0 0 0 0 0 0 0 0 0 0 0 0 127 0" result="hardAlpha"/>
<feOffset dy="4"/>
<feGaussianBlur stdDeviation="2"/>
<feColorMatrix type="matrix" values="0 0 0 0 0 0 0 0 0 0 0 0 0 0 0 0 0 0 0.25 0"/>
<feBlend mode="normal" in2="BackgroundImageFix" result="effect1_dropShadow"/>
<feBlend mode="normal" in="SourceGraphic" in2="effect1_dropShadow" result="shape"/>
</filter>
<filter id="filter1_d" x="0" y="69.9571" width="283" height="56.3743" filterUnits="userSpaceOnUse" color-interpolation-filters="sRGB">
<feFlood flood-opacity="0" result="BackgroundImageFix"/>
<feColorMatrix in="SourceAlpha" type="matrix" values="0 0 0 0 0 0 0 0 0 0 0 0 0 0 0 0 0 0 127 0" result="hardAlpha"/>
<feMorphology radius="2" operator="dilate" in="SourceAlpha" result="effect1_dropShadow"/>
<feOffset dx="2" dy="2"/>
<feGaussianBlur stdDeviation="2"/>
<feColorMatrix type="matrix" values="0 0 0 0 0 0 0 0 0 0 0 0 0 0 0 0 0 0 0.25 0"/>
<feBlend mode="normal" in2="BackgroundImageFix" result="effect1_dropShadow"/>
<feBlend mode="normal" in="SourceGraphic" in2="effect1_dropShadow" result="shape"/>
</filter>
</defs>
</svg>
