<svg width="294" height="128" viewBox="0 0 294 128" fill="none" xmlns="http://www.w3.org/2000/svg">
<g filter="url(#filter0_d)">
<path d="M4 75.2904H264.749C277.59 75.2904 288 85.7004 288 98.5419C288 111.383 277.59 121.793 264.749 121.793H44C21.9086 121.793 4 103.885 4 81.7933V75.2904Z" fill="white"/>
</g>
<path d="M65.0437 97.7461C65.851 97.7461 66.4882 97.5846 66.9553 97.2617C67.4282 96.9387 67.6647 96.3563 67.6647 95.5144C67.6647 94.609 67.336 93.9919 66.6785 93.6632C66.3268 93.4902 65.8568 93.4037 65.2686 93.4037H61.0646V97.7461H65.0437ZM59.3433 91.9246H65.2253C66.1941 91.9246 66.9928 92.0658 67.6214 92.3484C68.8151 92.8905 69.412 93.891 69.412 95.35C69.412 96.1112 69.2534 96.734 68.9362 97.2184C68.6248 97.7028 68.1865 98.0921 67.6214 98.3862C68.1173 98.588 68.4893 98.8533 68.7373 99.182C68.991 99.5107 69.1323 100.044 69.1611 100.782L69.2217 102.486C69.239 102.971 69.2793 103.331 69.3428 103.568C69.4466 103.971 69.6311 104.231 69.8964 104.346V104.632H67.7858C67.7281 104.522 67.682 104.381 67.6474 104.208C67.6128 104.035 67.5839 103.7 67.5609 103.204L67.4571 101.085C67.4167 100.255 67.1082 99.6981 66.5315 99.4155C66.2028 99.2598 65.6867 99.182 64.9831 99.182H61.0646V104.632H59.3433V91.9246Z" fill="black"/>
<path d="M73.2872 95.3673V101.518C73.2872 101.99 73.3622 102.377 73.5121 102.677C73.7889 103.23 74.305 103.507 75.0605 103.507C76.1446 103.507 76.8828 103.023 77.2749 102.054C77.4883 101.535 77.595 100.823 77.595 99.9173V95.3673H79.152V104.632H77.6815L77.6988 103.265C77.4969 103.617 77.2461 103.914 76.9462 104.156C76.3522 104.64 75.6314 104.882 74.7837 104.882C73.4631 104.882 72.5635 104.441 72.0849 103.559C71.8254 103.086 71.6956 102.455 71.6956 101.665V95.3673H73.2872Z" fill="black"/>
<path d="M81.5913 95.3673H83.0705V96.6821C83.5087 96.14 83.973 95.7508 84.4631 95.5144C84.9533 95.2779 85.4983 95.1597 86.098 95.1597C87.4128 95.1597 88.3009 95.6182 88.7622 96.5351C89.016 97.0368 89.1428 97.7547 89.1428 98.6889V104.632H87.5599V98.7927C87.5599 98.2276 87.4763 97.772 87.309 97.426C87.0322 96.8493 86.5305 96.561 85.8039 96.561C85.4348 96.561 85.1321 96.5985 84.8956 96.6735C84.4689 96.8003 84.0941 97.0541 83.7711 97.4347C83.5116 97.7403 83.3415 98.0575 83.2608 98.3862C83.1858 98.7091 83.1483 99.1733 83.1483 99.7788V104.632H81.5913V95.3673Z" fill="black"/>
<path d="M91.4524 95.3673H92.9316V96.6821C93.3699 96.14 93.8341 95.7508 94.3243 95.5144C94.8144 95.2779 95.3594 95.1597 95.9591 95.1597C97.2739 95.1597 98.162 95.6182 98.6234 96.5351C98.8771 97.0368 99.004 97.7547 99.004 98.6889V104.632H97.421V98.7927C97.421 98.2276 97.3374 97.772 97.1701 97.426C96.8933 96.8493 96.3916 96.561 95.665 96.561C95.2959 96.561 94.9932 96.5985 94.7568 96.6735C94.33 96.8003 93.9552 97.0541 93.6322 97.4347C93.3727 97.7403 93.2026 98.0575 93.1219 98.3862C93.0469 98.7091 93.0094 99.1733 93.0094 99.7788V104.632H91.4524V95.3673Z" fill="black"/>
<path d="M101.314 95.4106H102.896V104.632H101.314V95.4106ZM101.314 91.9246H102.896V93.6892H101.314V91.9246Z" fill="black"/>
<path d="M105.258 95.3673H106.737V96.6821C107.175 96.14 107.64 95.7508 108.13 95.5144C108.62 95.2779 109.165 95.1597 109.765 95.1597C111.079 95.1597 111.968 95.6182 112.429 96.5351C112.683 97.0368 112.81 97.7547 112.81 98.6889V104.632H111.227V98.7927C111.227 98.2276 111.143 97.772 110.976 97.426C110.699 96.8493 110.197 96.561 109.471 96.561C109.102 96.561 108.799 96.5985 108.562 96.6735C108.136 96.8003 107.761 97.0541 107.438 97.4347C107.178 97.7403 107.008 98.0575 106.927 98.3862C106.852 98.7091 106.815 99.1733 106.815 99.7788V104.632H105.258V95.3673Z" fill="black"/>
<path d="M118.389 95.2029C119.115 95.2029 119.75 95.3817 120.292 95.7393C120.586 95.9411 120.886 96.2352 121.191 96.6216V95.4538H122.627V103.879C122.627 105.055 122.454 105.984 122.108 106.664C121.462 107.921 120.243 108.55 118.449 108.55C117.452 108.55 116.613 108.325 115.932 107.875C115.252 107.431 114.871 106.734 114.79 105.782H116.373C116.448 106.197 116.598 106.517 116.823 106.742C117.175 107.088 117.729 107.261 118.484 107.261C119.678 107.261 120.459 106.84 120.828 105.998C121.047 105.502 121.148 104.617 121.131 103.343C120.819 103.816 120.445 104.167 120.006 104.398C119.568 104.629 118.989 104.744 118.268 104.744C117.264 104.744 116.385 104.389 115.629 103.68C114.88 102.965 114.505 101.786 114.505 100.142C114.505 98.5909 114.883 97.3799 115.638 96.5091C116.399 95.6383 117.316 95.2029 118.389 95.2029ZM121.191 99.9605C121.191 98.8129 120.955 97.9623 120.482 97.4087C120.009 96.8551 119.407 96.5783 118.674 96.5783C117.579 96.5783 116.829 97.0916 116.425 98.118C116.212 98.6659 116.105 99.3838 116.105 100.272C116.105 101.316 116.316 102.111 116.737 102.659C117.163 103.201 117.734 103.472 118.449 103.472C119.568 103.472 120.355 102.968 120.811 101.959C121.065 101.388 121.191 100.722 121.191 99.9605Z" fill="black"/>
<path d="M130.672 95.3673L133.146 102.91L135.732 95.3673H137.436L133.942 104.632H132.281L128.864 95.3673H130.672Z" fill="black"/>
<path d="M139.962 102.166C139.962 102.616 140.127 102.971 140.455 103.23C140.784 103.49 141.173 103.619 141.623 103.619C142.171 103.619 142.701 103.493 143.215 103.239C144.08 102.818 144.512 102.129 144.512 101.172V99.9173C144.322 100.038 144.077 100.139 143.777 100.22C143.477 100.301 143.183 100.358 142.895 100.393L141.952 100.514C141.387 100.589 140.963 100.707 140.68 100.869C140.201 101.14 139.962 101.572 139.962 102.166ZM143.734 99.0176C144.091 98.9715 144.33 98.8216 144.452 98.5678C144.521 98.4294 144.555 98.2305 144.555 97.971C144.555 97.4404 144.365 97.057 143.984 96.8205C143.61 96.5783 143.07 96.4572 142.367 96.4572C141.554 96.4572 140.977 96.6763 140.637 97.1146C140.447 97.3568 140.323 97.7172 140.265 98.1959H138.812C138.841 97.0541 139.21 96.2611 139.919 95.8171C140.634 95.3673 141.462 95.1424 142.401 95.1424C143.491 95.1424 144.377 95.35 145.057 95.7652C145.732 96.1804 146.069 96.8263 146.069 97.7028V103.04C146.069 103.201 146.101 103.331 146.164 103.429C146.233 103.527 146.375 103.576 146.588 103.576C146.657 103.576 146.735 103.573 146.822 103.568C146.908 103.556 147 103.542 147.098 103.524V104.675C146.856 104.744 146.672 104.787 146.545 104.805C146.418 104.822 146.245 104.831 146.026 104.831C145.49 104.831 145.1 104.64 144.858 104.26C144.731 104.058 144.642 103.772 144.59 103.403C144.273 103.818 143.817 104.179 143.223 104.485C142.629 104.79 141.975 104.943 141.26 104.943C140.4 104.943 139.697 104.683 139.149 104.164C138.607 103.64 138.336 102.985 138.336 102.201C138.336 101.342 138.604 100.676 139.14 100.203C139.677 99.7298 140.38 99.4386 141.251 99.329L143.734 99.0176Z" fill="black"/>
<path d="M148.673 91.9246H150.23V104.632H148.673V91.9246Z" fill="black"/>
<path d="M156.432 95.1597C157.089 95.1597 157.727 95.3154 158.344 95.6268C158.961 95.9324 159.431 96.3303 159.754 96.8205C160.065 97.2876 160.273 97.8326 160.376 98.4554C160.469 98.8821 160.515 99.5626 160.515 100.497H153.724C153.753 101.437 153.975 102.192 154.391 102.763C154.806 103.328 155.449 103.611 156.319 103.611C157.133 103.611 157.781 103.343 158.266 102.806C158.543 102.495 158.739 102.135 158.854 101.725H160.385C160.345 102.065 160.209 102.446 159.978 102.867C159.754 103.282 159.5 103.622 159.217 103.888C158.744 104.349 158.159 104.66 157.461 104.822C157.086 104.914 156.663 104.96 156.19 104.96C155.036 104.96 154.059 104.542 153.257 103.706C152.456 102.864 152.055 101.688 152.055 100.177C152.055 98.6889 152.459 97.4808 153.266 96.5524C154.073 95.6239 155.129 95.1597 156.432 95.1597ZM158.915 99.2598C158.851 98.5851 158.704 98.0459 158.473 97.6423C158.047 96.8926 157.334 96.5178 156.337 96.5178C155.622 96.5178 155.022 96.7773 154.538 97.2963C154.053 97.8095 153.797 98.464 153.768 99.2598H158.915Z" fill="black"/>
<path d="M162.747 92.7809H164.321V95.3673H165.8V96.6389H164.321V102.685C164.321 103.008 164.43 103.224 164.65 103.334C164.771 103.397 164.972 103.429 165.255 103.429C165.33 103.429 165.411 103.429 165.497 103.429C165.584 103.423 165.685 103.415 165.8 103.403V104.632C165.621 104.683 165.434 104.721 165.238 104.744C165.047 104.767 164.84 104.779 164.615 104.779C163.888 104.779 163.395 104.594 163.136 104.225C162.876 103.85 162.747 103.366 162.747 102.772V96.6389H161.492V95.3673H162.747V92.7809Z" fill="black"/>
<path d="M173.222 101.725C173.268 102.244 173.398 102.642 173.611 102.919C174.003 103.421 174.684 103.671 175.652 103.671C176.229 103.671 176.737 103.547 177.175 103.299C177.613 103.046 177.832 102.656 177.832 102.132C177.832 101.734 177.656 101.431 177.305 101.223C177.08 101.097 176.636 100.949 175.973 100.782L174.736 100.471C173.946 100.275 173.363 100.056 172.988 99.8134C172.319 99.3925 171.985 98.81 171.985 98.0661C171.985 97.1896 172.299 96.4803 172.928 95.9382C173.562 95.3961 174.413 95.1251 175.479 95.1251C176.875 95.1251 177.881 95.5345 178.498 96.3534C178.885 96.8724 179.072 97.4318 179.061 98.0315H177.59C177.561 97.6798 177.437 97.3597 177.218 97.0714C176.861 96.6619 176.241 96.4572 175.358 96.4572C174.77 96.4572 174.323 96.5697 174.018 96.7946C173.718 97.0195 173.568 97.3165 173.568 97.6855C173.568 98.0892 173.767 98.4121 174.165 98.6543C174.395 98.7985 174.736 98.9254 175.185 99.0349L176.215 99.2858C177.333 99.5568 178.083 99.8192 178.464 100.073C179.069 100.471 179.372 101.097 179.372 101.95C179.372 102.775 179.058 103.487 178.429 104.087C177.806 104.686 176.855 104.986 175.575 104.986C174.196 104.986 173.219 104.675 172.642 104.052C172.071 103.423 171.766 102.648 171.725 101.725H173.222Z" fill="black"/>
<path d="M181.465 92.7809H183.04V95.3673H184.519V96.6389H183.04V102.685C183.04 103.008 183.149 103.224 183.368 103.334C183.489 103.397 183.691 103.429 183.974 103.429C184.049 103.429 184.13 103.429 184.216 103.429C184.303 103.423 184.403 103.415 184.519 103.403V104.632C184.34 104.683 184.153 104.721 183.957 104.744C183.766 104.767 183.559 104.779 183.334 104.779C182.607 104.779 182.114 104.594 181.855 104.225C181.595 103.85 181.465 103.366 181.465 102.772V96.6389H180.211V95.3673H181.465V92.7809Z" fill="black"/>
<path d="M186.128 95.3673H187.607V96.9676C187.728 96.6562 188.025 96.2784 188.498 95.8344C188.971 95.3846 189.516 95.1597 190.133 95.1597C190.162 95.1597 190.211 95.1626 190.28 95.1683C190.349 95.1741 190.467 95.1856 190.634 95.2029V96.8465C190.542 96.8292 190.456 96.8176 190.375 96.8119C190.3 96.8061 190.216 96.8032 190.124 96.8032C189.34 96.8032 188.737 97.057 188.316 97.5644C187.895 98.0661 187.685 98.6457 187.685 99.3031V104.632H186.128V95.3673Z" fill="black"/>
<path d="M193.178 102.166C193.178 102.616 193.342 102.971 193.671 103.23C193.999 103.49 194.389 103.619 194.838 103.619C195.386 103.619 195.917 103.493 196.43 103.239C197.295 102.818 197.728 102.129 197.728 101.172V99.9173C197.537 100.038 197.292 100.139 196.992 100.22C196.692 100.301 196.398 100.358 196.11 100.393L195.167 100.514C194.602 100.589 194.178 100.707 193.896 100.869C193.417 101.14 193.178 101.572 193.178 102.166ZM196.949 99.0176C197.307 98.9715 197.546 98.8216 197.667 98.5678C197.736 98.4294 197.771 98.2305 197.771 97.971C197.771 97.4404 197.58 97.057 197.2 96.8205C196.825 96.5783 196.286 96.4572 195.582 96.4572C194.769 96.4572 194.193 96.6763 193.852 97.1146C193.662 97.3568 193.538 97.7172 193.48 98.1959H192.027C192.056 97.0541 192.425 96.2611 193.134 95.8171C193.849 95.3673 194.677 95.1424 195.617 95.1424C196.707 95.1424 197.592 95.35 198.272 95.7652C198.947 96.1804 199.285 96.8263 199.285 97.7028V103.04C199.285 103.201 199.316 103.331 199.38 103.429C199.449 103.527 199.59 103.576 199.804 103.576C199.873 103.576 199.951 103.573 200.037 103.568C200.124 103.556 200.216 103.542 200.314 103.524V104.675C200.072 104.744 199.887 104.787 199.76 104.805C199.633 104.822 199.46 104.831 199.241 104.831C198.705 104.831 198.316 104.64 198.074 104.26C197.947 104.058 197.857 103.772 197.805 103.403C197.488 103.818 197.033 104.179 196.439 104.485C195.845 104.79 195.19 104.943 194.475 104.943C193.616 104.943 192.912 104.683 192.364 104.164C191.822 103.64 191.551 102.985 191.551 102.201C191.551 101.342 191.82 100.676 192.356 100.203C192.892 99.7298 193.596 99.4386 194.466 99.329L196.949 99.0176Z" fill="black"/>
<path d="M202.156 92.7809H203.731V95.3673H205.21V96.6389H203.731V102.685C203.731 103.008 203.84 103.224 204.059 103.334C204.18 103.397 204.382 103.429 204.665 103.429C204.74 103.429 204.821 103.429 204.907 103.429C204.994 103.423 205.095 103.415 205.21 103.403V104.632C205.031 104.683 204.844 104.721 204.648 104.744C204.457 104.767 204.25 104.779 204.025 104.779C203.298 104.779 202.805 104.594 202.546 104.225C202.286 103.85 202.156 103.366 202.156 102.772V96.6389H200.902V95.3673H202.156V92.7809Z" fill="black"/>
<path d="M210.633 95.1597C211.291 95.1597 211.928 95.3154 212.545 95.6268C213.162 95.9324 213.632 96.3303 213.955 96.8205C214.266 97.2876 214.474 97.8326 214.578 98.4554C214.67 98.8821 214.716 99.5626 214.716 100.497H207.926C207.955 101.437 208.177 102.192 208.592 102.763C209.007 103.328 209.65 103.611 210.521 103.611C211.334 103.611 211.983 103.343 212.467 102.806C212.744 102.495 212.94 102.135 213.055 101.725H214.587C214.546 102.065 214.411 102.446 214.18 102.867C213.955 103.282 213.701 103.622 213.419 103.888C212.946 104.349 212.361 104.66 211.663 104.822C211.288 104.914 210.864 104.96 210.391 104.96C209.238 104.96 208.26 104.542 207.459 103.706C206.657 102.864 206.257 101.688 206.257 100.177C206.257 98.6889 206.66 97.4808 207.468 96.5524C208.275 95.6239 209.33 95.1597 210.633 95.1597ZM213.116 99.2598C213.053 98.5851 212.906 98.0459 212.675 97.6423C212.248 96.8926 211.536 96.5178 210.538 96.5178C209.823 96.5178 209.223 96.7773 208.739 97.2963C208.255 97.8095 207.998 98.464 207.969 99.2598H213.116Z" fill="black"/>
<path d="M219.906 95.2029C220.633 95.2029 221.267 95.3817 221.809 95.7393C222.103 95.9411 222.403 96.2352 222.709 96.6216V95.4538H224.145V103.879C224.145 105.055 223.972 105.984 223.626 106.664C222.98 107.921 221.76 108.55 219.967 108.55C218.969 108.55 218.13 108.325 217.45 107.875C216.769 107.431 216.389 106.734 216.308 105.782H217.891C217.966 106.197 218.116 106.517 218.341 106.742C218.692 107.088 219.246 107.261 220.002 107.261C221.195 107.261 221.977 106.84 222.346 105.998C222.565 105.502 222.666 104.617 222.648 103.343C222.337 103.816 221.962 104.167 221.524 104.398C221.086 104.629 220.506 104.744 219.785 104.744C218.782 104.744 217.902 104.389 217.147 103.68C216.397 102.965 216.022 101.786 216.022 100.142C216.022 98.5909 216.4 97.3799 217.156 96.5091C217.917 95.6383 218.834 95.2029 219.906 95.2029ZM222.709 99.9605C222.709 98.8129 222.473 97.9623 222 97.4087C221.527 96.8551 220.924 96.5783 220.192 96.5783C219.096 96.5783 218.346 97.0916 217.943 98.118C217.729 98.6659 217.623 99.3838 217.623 100.272C217.623 101.316 217.833 102.111 218.254 102.659C218.681 103.201 219.252 103.472 219.967 103.472C221.086 103.472 221.873 102.968 222.328 101.959C222.582 101.388 222.709 100.722 222.709 99.9605Z" fill="black"/>
<path d="M232.285 95.3673H234.006C233.787 95.9613 233.3 97.3165 232.544 99.4328C231.979 101.024 231.506 102.322 231.126 103.325C230.226 105.69 229.592 107.131 229.223 107.65C228.853 108.169 228.219 108.429 227.32 108.429C227.1 108.429 226.93 108.42 226.809 108.403C226.694 108.386 226.55 108.354 226.377 108.308V106.889C226.648 106.964 226.844 107.01 226.965 107.028C227.086 107.045 227.193 107.054 227.285 107.054C227.573 107.054 227.784 107.005 227.916 106.907C228.055 106.814 228.17 106.699 228.262 106.561C228.291 106.514 228.395 106.278 228.574 105.851C228.753 105.424 228.882 105.107 228.963 104.9L225.538 95.3673H227.302L229.785 102.91L232.285 95.3673Z" fill="black"/>
<g filter="url(#filter1_d)">
<path d="M4 35.4308C4 15.8629 19.8629 0 39.4308 0C58.9987 0 74.8616 15.8629 74.8616 35.4308V38.924C74.8616 56.5626 60.5626 70.8616 42.924 70.8616H4V35.4308Z" fill="white"/>
</g>
<path d="M22.3412 38.4206C23.3404 37.6978 24.5269 37.2619 25.7666 37.162C26.2893 37.0969 26.8176 37.059 27.3514 37.0373L27.3013 36.7985C27.0511 35.5562 26.534 32.9684 28.2911 31.303C29.3032 30.3481 30.6489 30.1257 31.8277 29.9901C38.0221 29.2603 44.284 29.2603 50.4783 29.9901C52.2188 30.2071 54.1817 30.6248 55.5886 32.095C57.1233 33.7225 57.6794 35.8926 58.1687 37.8239L58.3912 38.6865C59.332 42.1572 60.0745 45.6763 60.6155 49.2274C60.9324 51.316 61.0214 53.6705 59.3532 55.3089C57.9852 56.6489 56.1057 56.8279 54.2929 56.9039L38.3838 57.5386C38.0279 57.5386 37.6331 57.5657 37.2216 57.5657C35.8151 57.6366 34.4184 57.3006 33.2068 56.6001C31.027 55.195 30.4821 52.4824 30.154 50.8603L30.0706 50.4426C26.0363 50.8383 22.2582 48.4582 20.9677 44.7083C20.2448 42.6847 20.4061 39.9722 22.3412 38.4206Z" fill="#FA9989"/>
<path d="M47.5966 51.642C48.8329 51.6443 50.0503 51.3459 51.1388 50.774C51.7919 50.406 52.0251 49.5972 51.6645 48.951C51.3039 48.3048 50.481 48.0569 49.8098 48.3924C48.6202 49.0249 47.2054 49.1143 45.9422 48.6366C44.679 48.1588 43.6955 47.1626 43.2537 45.9131C43.0865 45.4426 42.6684 45.0993 42.1647 45.0189C41.6609 44.9385 41.1525 45.1339 40.8404 45.5279L40.4956 45.9565C40.0269 46.549 40.1362 47.3994 40.7403 47.8607C40.8907 47.974 41.0627 48.057 41.2463 48.1048C42.0944 49.4967 43.3935 50.5733 44.9386 51.1646C45.7868 51.4825 46.688 51.6444 47.5966 51.642Z" fill="#1B1812"/>
<path fill-rule="evenodd" clip-rule="evenodd" d="M56.7131 33.2012C55.5435 28.777 52.8347 25.392 48.5866 23.0463C42.2144 19.5277 30.4595 21.9818 26.858 25.7902C23.5249 29.5293 22.747 36.2463 24.3072 40.6267C25.9183 45.15 29.3447 36.0122 36.7677 33.2012C41.7164 31.3273 48.3648 31.3273 56.7131 33.2012Z" fill="#796235"/>
<path d="M27.0158 31.1892C21.9485 31.1892 17.8406 27.1816 17.8406 22.2379C17.8406 17.2942 21.9485 13.2865 27.0158 13.2865C32.0831 13.2865 36.1909 17.2942 36.1909 22.2379C36.1909 27.1816 32.0831 31.1892 27.0158 31.1892Z" fill="#796235"/>
<defs>
<filter id="filter0_d" x="2" y="73.2904" width="292" height="54.5029" filterUnits="userSpaceOnUse" color-interpolation-filters="sRGB">
<feFlood flood-opacity="0" result="BackgroundImageFix"/>
<feColorMatrix in="SourceAlpha" type="matrix" values="0 0 0 0 0 0 0 0 0 0 0 0 0 0 0 0 0 0 127 0" result="hardAlpha"/>
<feOffset dx="2" dy="2"/>
<feGaussianBlur stdDeviation="2"/>
<feColorMatrix type="matrix" values="0 0 0 0 0 0 0 0 0 0 0 0 0 0 0 0 0 0 0.25 0"/>
<feBlend mode="normal" in2="BackgroundImageFix" result="effect1_dropShadow"/>
<feBlend mode="normal" in="SourceGraphic" in2="effect1_dropShadow" result="shape"/>
</filter>
<filter id="filter1_d" x="0" y="0" width="78.8616" height="78.8616" filterUnits="userSpaceOnUse" color-interpolation-filters="sRGB">
<feFlood flood-opacity="0" result="BackgroundImageFix"/>
<feColorMatrix in="SourceAlpha" type="matrix" values="0 0 0 0 0 0 0 0 0 0 0 0 0 0 0 0 0 0 127 0" result="hardAlpha"/>
<feOffset dy="4"/>
<feGaussianBlur stdDeviation="2"/>
<feColorMatrix type="matrix" values="0 0 0 0 0 0 0 0 0 0 0 0 0 0 0 0 0 0 0.25 0"/>
<feBlend mode="normal" in2="BackgroundImageFix" result="effect1_dropShadow"/>
<feBlend mode="normal" in="SourceGraphic" in2="effect1_dropShadow" result="shape"/>
</filter>
</defs>
</svg>
